M48
; DRILL file {KiCad 7.0.5} date Thu Jul  6 17:02:58 2023
; FORMAT={-:-/ absolute / inch / decimal}
; #@! TF.CreationDate,2023-07-06T17:02:58+08:00
; #@! TF.GenerationSoftware,Kicad,Pcbnew,7.0.5
; #@! TF.FileFunction,Plated,1,2,PTH
FMAT,2
INCH
; #@! TA.AperFunction,Plated,PTH,ViaDrill
T1C0.0157
; #@! TA.AperFunction,Plated,PTH,ComponentDrill
T2C0.0276
; #@! TA.AperFunction,Plated,PTH,ComponentDrill
T3C0.0394
; #@! TA.AperFunction,Plated,PTH,ComponentDrill
T4C0.0472
%
G90
G05
T1
X3.253Y-3.2825
X3.6188Y-3.3858
X3.8091Y-3.5335
X4.4094Y-3.2283
T2
X3.5138Y-3.1004
T3
X3.153Y-3.3827
X3.153Y-3.4827
X3.153Y-3.5827
X3.153Y-3.6827
X3.153Y-3.7827
X3.153Y-3.8827
X3.253Y-3.3827
X3.253Y-3.4827
X3.253Y-3.5827
X3.253Y-3.6827
X3.253Y-3.7827
X3.253Y-3.8827
T4
X4.5079Y-3.2579
X4.5866Y-3.2579
X4.6654Y-3.2579
X4.9715Y-3.5591
X4.9715Y-3.6378
X4.9715Y-3.7165
T0
M30
