%TF.GenerationSoftware,KiCad,Pcbnew,7.0.5*%
%TF.CreationDate,2023-07-06T17:02:58+08:00*%
%TF.ProjectId,GameRockerShaft,47616d65-526f-4636-9b65-725368616674,rev?*%
%TF.SameCoordinates,Original*%
%TF.FileFunction,Drillmap*%
%TF.FilePolarity,Positive*%
%FSLAX45Y45*%
G04 Gerber Fmt 4.5, Leading zero omitted, Abs format (unit mm)*
G04 Created by KiCad (PCBNEW 7.0.5) date 2023-07-06 17:02:58*
%MOMM*%
%LPD*%
G01*
G04 APERTURE LIST*
%ADD10C,0.100000*%
%ADD11C,0.200000*%
G04 APERTURE END LIST*
D10*
X7000000Y-7800000D02*
X7000000Y-10700000D01*
X13000000Y-7800000D02*
X13000000Y-10700000D01*
X13000000Y-7800000D02*
G75*
G03*
X12200000Y-7000000I-800000J0D01*
G01*
X7800000Y-7000000D02*
X12200000Y-7000000D01*
X12200000Y-11500000D02*
G75*
G03*
X13000000Y-10700000I0J800000D01*
G01*
X7000000Y-10700000D02*
G75*
G03*
X7800000Y-11500000I800000J0D01*
G01*
X7800000Y-11500000D02*
X12200000Y-11500000D01*
X7800000Y-7000000D02*
G75*
G03*
X7000000Y-7800000I0J-800000D01*
G01*
D11*
X7255777Y-11816484D02*
X7255777Y-11616484D01*
X7255777Y-11616484D02*
X7303396Y-11616484D01*
X7303396Y-11616484D02*
X7331967Y-11626008D01*
X7331967Y-11626008D02*
X7351015Y-11645055D01*
X7351015Y-11645055D02*
X7360539Y-11664103D01*
X7360539Y-11664103D02*
X7370062Y-11702198D01*
X7370062Y-11702198D02*
X7370062Y-11730769D01*
X7370062Y-11730769D02*
X7360539Y-11768865D01*
X7360539Y-11768865D02*
X7351015Y-11787912D01*
X7351015Y-11787912D02*
X7331967Y-11806960D01*
X7331967Y-11806960D02*
X7303396Y-11816484D01*
X7303396Y-11816484D02*
X7255777Y-11816484D01*
X7455777Y-11816484D02*
X7455777Y-11683150D01*
X7455777Y-11721246D02*
X7465301Y-11702198D01*
X7465301Y-11702198D02*
X7474824Y-11692674D01*
X7474824Y-11692674D02*
X7493872Y-11683150D01*
X7493872Y-11683150D02*
X7512920Y-11683150D01*
X7579586Y-11816484D02*
X7579586Y-11683150D01*
X7579586Y-11616484D02*
X7570062Y-11626008D01*
X7570062Y-11626008D02*
X7579586Y-11635531D01*
X7579586Y-11635531D02*
X7589110Y-11626008D01*
X7589110Y-11626008D02*
X7579586Y-11616484D01*
X7579586Y-11616484D02*
X7579586Y-11635531D01*
X7703396Y-11816484D02*
X7684348Y-11806960D01*
X7684348Y-11806960D02*
X7674824Y-11787912D01*
X7674824Y-11787912D02*
X7674824Y-11616484D01*
X7808158Y-11816484D02*
X7789110Y-11806960D01*
X7789110Y-11806960D02*
X7779586Y-11787912D01*
X7779586Y-11787912D02*
X7779586Y-11616484D01*
X8036729Y-11816484D02*
X8036729Y-11616484D01*
X8036729Y-11616484D02*
X8103396Y-11759341D01*
X8103396Y-11759341D02*
X8170062Y-11616484D01*
X8170062Y-11616484D02*
X8170062Y-11816484D01*
X8351015Y-11816484D02*
X8351015Y-11711722D01*
X8351015Y-11711722D02*
X8341491Y-11692674D01*
X8341491Y-11692674D02*
X8322443Y-11683150D01*
X8322443Y-11683150D02*
X8284348Y-11683150D01*
X8284348Y-11683150D02*
X8265301Y-11692674D01*
X8351015Y-11806960D02*
X8331967Y-11816484D01*
X8331967Y-11816484D02*
X8284348Y-11816484D01*
X8284348Y-11816484D02*
X8265301Y-11806960D01*
X8265301Y-11806960D02*
X8255777Y-11787912D01*
X8255777Y-11787912D02*
X8255777Y-11768865D01*
X8255777Y-11768865D02*
X8265301Y-11749817D01*
X8265301Y-11749817D02*
X8284348Y-11740293D01*
X8284348Y-11740293D02*
X8331967Y-11740293D01*
X8331967Y-11740293D02*
X8351015Y-11730769D01*
X8446253Y-11683150D02*
X8446253Y-11883150D01*
X8446253Y-11692674D02*
X8465301Y-11683150D01*
X8465301Y-11683150D02*
X8503396Y-11683150D01*
X8503396Y-11683150D02*
X8522444Y-11692674D01*
X8522444Y-11692674D02*
X8531967Y-11702198D01*
X8531967Y-11702198D02*
X8541491Y-11721246D01*
X8541491Y-11721246D02*
X8541491Y-11778388D01*
X8541491Y-11778388D02*
X8531967Y-11797436D01*
X8531967Y-11797436D02*
X8522444Y-11806960D01*
X8522444Y-11806960D02*
X8503396Y-11816484D01*
X8503396Y-11816484D02*
X8465301Y-11816484D01*
X8465301Y-11816484D02*
X8446253Y-11806960D01*
X8627205Y-11797436D02*
X8636729Y-11806960D01*
X8636729Y-11806960D02*
X8627205Y-11816484D01*
X8627205Y-11816484D02*
X8617682Y-11806960D01*
X8617682Y-11806960D02*
X8627205Y-11797436D01*
X8627205Y-11797436D02*
X8627205Y-11816484D01*
X8627205Y-11692674D02*
X8636729Y-11702198D01*
X8636729Y-11702198D02*
X8627205Y-11711722D01*
X8627205Y-11711722D02*
X8617682Y-11702198D01*
X8617682Y-11702198D02*
X8627205Y-11692674D01*
X8627205Y-11692674D02*
X8627205Y-11711722D01*
M02*
