%TF.GenerationSoftware,KiCad,Pcbnew,7.0.5*%
%TF.CreationDate,2023-07-06T17:03:00+08:00*%
%TF.ProjectId,GameRockerShaft,47616d65-526f-4636-9b65-725368616674,rev?*%
%TF.SameCoordinates,Original*%
%TF.FileFunction,Copper,L1,Top*%
%TF.FilePolarity,Positive*%
%FSLAX46Y46*%
G04 Gerber Fmt 4.6, Leading zero omitted, Abs format (unit mm)*
G04 Created by KiCad (PCBNEW 7.0.5) date 2023-07-06 17:03:00*
%MOMM*%
%LPD*%
G01*
G04 APERTURE LIST*
G04 Aperture macros list*
%AMRoundRect*
0 Rectangle with rounded corners*
0 $1 Rounding radius*
0 $2 $3 $4 $5 $6 $7 $8 $9 X,Y pos of 4 corners*
0 Add a 4 corners polygon primitive as box body*
4,1,4,$2,$3,$4,$5,$6,$7,$8,$9,$2,$3,0*
0 Add four circle primitives for the rounded corners*
1,1,$1+$1,$2,$3*
1,1,$1+$1,$4,$5*
1,1,$1+$1,$6,$7*
1,1,$1+$1,$8,$9*
0 Add four rect primitives between the rounded corners*
20,1,$1+$1,$2,$3,$4,$5,0*
20,1,$1+$1,$4,$5,$6,$7,0*
20,1,$1+$1,$6,$7,$8,$9,0*
20,1,$1+$1,$8,$9,$2,$3,0*%
G04 Aperture macros list end*
%TA.AperFunction,SMDPad,CuDef*%
%ADD10RoundRect,0.150000X-0.150000X0.825000X-0.150000X-0.825000X0.150000X-0.825000X0.150000X0.825000X0*%
%TD*%
%TA.AperFunction,ComponentPad*%
%ADD11O,1.500000X3.600000*%
%TD*%
%TA.AperFunction,ComponentPad*%
%ADD12O,3.600000X1.500000*%
%TD*%
%TA.AperFunction,SMDPad,CuDef*%
%ADD13RoundRect,0.250000X0.250000X0.475000X-0.250000X0.475000X-0.250000X-0.475000X0.250000X-0.475000X0*%
%TD*%
%TA.AperFunction,ComponentPad*%
%ADD14R,1.500000X1.500000*%
%TD*%
%TA.AperFunction,ComponentPad*%
%ADD15R,1.700000X1.700000*%
%TD*%
%TA.AperFunction,ComponentPad*%
%ADD16O,1.700000X1.700000*%
%TD*%
%TA.AperFunction,SMDPad,CuDef*%
%ADD17RoundRect,0.250000X-0.262500X-0.450000X0.262500X-0.450000X0.262500X0.450000X-0.262500X0.450000X0*%
%TD*%
%TA.AperFunction,SMDPad,CuDef*%
%ADD18RoundRect,0.243750X-0.243750X-0.456250X0.243750X-0.456250X0.243750X0.456250X-0.243750X0.456250X0*%
%TD*%
%TA.AperFunction,SMDPad,CuDef*%
%ADD19RoundRect,0.250000X0.262500X0.450000X-0.262500X0.450000X-0.262500X-0.450000X0.262500X-0.450000X0*%
%TD*%
%TA.AperFunction,ViaPad*%
%ADD20C,0.800000*%
%TD*%
%TA.AperFunction,Conductor*%
%ADD21C,0.254000*%
%TD*%
%TA.AperFunction,Conductor*%
%ADD22C,0.250000*%
%TD*%
G04 APERTURE END LIST*
D10*
%TO.P,U1,1,CH0*%
%TO.N,Net-(J2-X)*%
X104285000Y-89795000D03*
%TO.P,U1,2,CH1*%
%TO.N,Net-(J2-Y)*%
X103015000Y-89795000D03*
%TO.P,U1,3,CH2*%
%TO.N,unconnected-(U1-CH2-Pad3)*%
X101745000Y-89795000D03*
%TO.P,U1,4,CH3*%
%TO.N,unconnected-(U1-CH3-Pad4)*%
X100475000Y-89795000D03*
%TO.P,U1,5,NC*%
%TO.N,unconnected-(U1-NC-Pad5)*%
X99205000Y-89795000D03*
%TO.P,U1,6,NC*%
%TO.N,unconnected-(U1-NC-Pad6)*%
X97935000Y-89795000D03*
%TO.P,U1,7,DGND*%
%TO.N,GND*%
X96665000Y-89795000D03*
%TO.P,U1,8,~{CS}/SHDN*%
%TO.N,/CH5*%
X96665000Y-94745000D03*
%TO.P,U1,9,Din*%
%TO.N,/CH7*%
X97935000Y-94745000D03*
%TO.P,U1,10,Dout*%
%TO.N,/CH8*%
X99205000Y-94745000D03*
%TO.P,U1,11,CLK*%
%TO.N,/CH6*%
X100475000Y-94745000D03*
%TO.P,U1,12,AGND*%
%TO.N,GND*%
X101745000Y-94745000D03*
%TO.P,U1,13,Vref*%
%TO.N,+3V3*%
X103015000Y-94745000D03*
%TO.P,U1,14,Vdd*%
X104285000Y-94745000D03*
%TD*%
D11*
%TO.P,J2,1,VCC*%
%TO.N,GND*%
X114500000Y-81950000D03*
%TO.P,J2,2,X*%
%TO.N,Net-(J2-X)*%
X116500000Y-81950000D03*
%TO.P,J2,3,GND*%
%TO.N,+3V3*%
X118500000Y-81950000D03*
D12*
%TO.P,J2,4,VCC*%
X127075000Y-94400000D03*
%TO.P,J2,5,Y*%
%TO.N,Net-(J2-Y)*%
X127075000Y-92400000D03*
%TO.P,J2,6,GND*%
%TO.N,GND*%
X127075000Y-90400000D03*
%TD*%
D13*
%TO.P,C1,1*%
%TO.N,+3V3*%
X103250000Y-98250000D03*
%TO.P,C1,2*%
%TO.N,GND*%
X101350000Y-98250000D03*
%TD*%
D14*
%TO.P,TP1,1,1*%
%TO.N,GND*%
X89250000Y-78750000D03*
%TD*%
D15*
%TO.P,J1,1,Pin_1*%
%TO.N,GND*%
X82625000Y-85920000D03*
D16*
%TO.P,J1,2,Pin_2*%
%TO.N,+3V3*%
X80085000Y-85920000D03*
%TO.P,J1,3,Pin_3*%
%TO.N,/CH0*%
X82625000Y-88460000D03*
%TO.P,J1,4,Pin_4*%
%TO.N,/5V0*%
X80085000Y-88460000D03*
%TO.P,J1,5,Pin_5*%
%TO.N,/CH1*%
X82625000Y-91000000D03*
%TO.P,J1,6,Pin_6*%
%TO.N,/CH5*%
X80085000Y-91000000D03*
%TO.P,J1,7,Pin_7*%
%TO.N,/CH2*%
X82625000Y-93540000D03*
%TO.P,J1,8,Pin_8*%
%TO.N,/CH6*%
X80085000Y-93540000D03*
%TO.P,J1,9,Pin_9*%
%TO.N,/CH3*%
X82625000Y-96080000D03*
%TO.P,J1,10,Pin_10*%
%TO.N,/CH7*%
X80085000Y-96080000D03*
%TO.P,J1,11,Pin_11*%
%TO.N,/CH4*%
X82625000Y-98620000D03*
%TO.P,J1,12,Pin_12*%
%TO.N,/CH8*%
X80085000Y-98620000D03*
%TD*%
D17*
%TO.P,R1,1*%
%TO.N,+3V3*%
X90000000Y-86000000D03*
%TO.P,R1,2*%
%TO.N,/CH5*%
X91825000Y-86000000D03*
%TD*%
D18*
%TO.P,D1,1,K*%
%TO.N,GND*%
X89995000Y-94000000D03*
%TO.P,D1,2,A*%
%TO.N,Net-(D1-A)*%
X91870000Y-94000000D03*
%TD*%
D19*
%TO.P,R2,1*%
%TO.N,Net-(D1-A)*%
X91825000Y-90293333D03*
%TO.P,R2,2*%
%TO.N,+3V3*%
X90000000Y-90293333D03*
%TD*%
D20*
%TO.N,GND*%
X96750000Y-89750000D03*
X82625000Y-83375000D03*
X112000000Y-82000000D03*
%TO.N,/CH5*%
X91917500Y-86000000D03*
%TD*%
D21*
%TO.N,+3V3*%
X93457500Y-82125000D02*
X107625000Y-82125000D01*
X90000000Y-85582500D02*
X93457500Y-82125000D01*
X103020000Y-94520000D02*
X103020000Y-94745000D01*
X80085000Y-85920000D02*
X81262000Y-84743000D01*
X107625000Y-82125000D02*
X110750000Y-79000000D01*
X89582500Y-86000000D02*
X89582500Y-90293333D01*
X90000000Y-86000000D02*
X90000000Y-85582500D01*
X103000000Y-94500000D02*
X103000000Y-94730000D01*
X104285000Y-94745000D02*
X104455000Y-94575000D01*
X88743000Y-84743000D02*
X90000000Y-86000000D01*
X104455000Y-94575000D02*
X127000000Y-94575000D01*
X118500000Y-81376892D02*
X118500000Y-82750000D01*
X116123108Y-79000000D02*
X118500000Y-81376892D01*
X104285000Y-94745000D02*
X103015000Y-94745000D01*
X103000000Y-94500000D02*
X103020000Y-94520000D01*
X110750000Y-79000000D02*
X116123108Y-79000000D01*
X81262000Y-84743000D02*
X88743000Y-84743000D01*
X103015000Y-98015000D02*
X103250000Y-98250000D01*
X103015000Y-94745000D02*
X103015000Y-98015000D01*
D22*
%TO.N,GND*%
X114500000Y-82750000D02*
X113750000Y-82000000D01*
X113750000Y-82000000D02*
X112000000Y-82000000D01*
%TO.N,Net-(D1-A)*%
X91825000Y-93955000D02*
X91870000Y-94000000D01*
X91825000Y-90293333D02*
X91825000Y-93955000D01*
%TO.N,/CH5*%
X91917500Y-86510000D02*
X96038000Y-90630500D01*
D21*
X96665000Y-94745000D02*
X96038000Y-94118000D01*
D22*
X91917500Y-86000000D02*
X91917500Y-86510000D01*
D21*
X96038000Y-94118000D02*
X96038000Y-90630500D01*
D22*
%TO.N,/CH6*%
X100475000Y-94745000D02*
X100475000Y-95121751D01*
X100475000Y-95121751D02*
X95351751Y-100245000D01*
X78910000Y-99106701D02*
X78910000Y-94715000D01*
X78910000Y-94715000D02*
X80085000Y-93540000D01*
X80048299Y-100245000D02*
X78910000Y-99106701D01*
X95351751Y-100245000D02*
X80048299Y-100245000D01*
%TO.N,/CH7*%
X81260000Y-97255000D02*
X80085000Y-96080000D01*
X82921701Y-97255000D02*
X81260000Y-97255000D01*
X97935000Y-95121751D02*
X94031751Y-99025000D01*
X94031751Y-99025000D02*
X84691701Y-99025000D01*
X97935000Y-94745000D02*
X97935000Y-95121751D01*
X84691701Y-99025000D02*
X82921701Y-97255000D01*
%TO.N,/CH8*%
X99205000Y-94745000D02*
X99205000Y-95121751D01*
X94531751Y-99795000D02*
X81260000Y-99795000D01*
X81260000Y-99795000D02*
X80085000Y-98620000D01*
X99205000Y-95121751D02*
X94531751Y-99795000D01*
D21*
%TO.N,Net-(J2-X)*%
X116425000Y-83175000D02*
X109805000Y-89795000D01*
X109805000Y-89795000D02*
X104285000Y-89795000D01*
%TO.N,Net-(J2-Y)*%
X105415420Y-92575000D02*
X103015000Y-90174580D01*
X127000000Y-92575000D02*
X105415420Y-92575000D01*
X103015000Y-90174580D02*
X103015000Y-89795000D01*
%TD*%
%TA.AperFunction,Conductor*%
%TO.N,GND*%
G36*
X88498758Y-85390185D02*
G01*
X88519400Y-85406819D01*
X88920985Y-85808404D01*
X88954470Y-85869727D01*
X88953686Y-85912696D01*
X88955978Y-85912986D01*
X88955000Y-85920729D01*
X88955000Y-90332818D01*
X88969884Y-90450626D01*
X88978293Y-90471865D01*
X88987000Y-90517512D01*
X88987000Y-90793333D01*
X88987001Y-90793352D01*
X88997500Y-90896129D01*
X88997501Y-90896132D01*
X89039166Y-91021866D01*
X89052686Y-91062667D01*
X89144788Y-91211989D01*
X89268844Y-91336045D01*
X89418166Y-91428147D01*
X89584703Y-91483332D01*
X89687491Y-91493833D01*
X90312508Y-91493832D01*
X90312516Y-91493831D01*
X90312519Y-91493831D01*
X90368802Y-91488081D01*
X90415297Y-91483332D01*
X90581834Y-91428147D01*
X90731156Y-91336045D01*
X90824819Y-91242382D01*
X90886142Y-91208897D01*
X90955834Y-91213881D01*
X91000181Y-91242382D01*
X91093844Y-91336045D01*
X91140596Y-91364881D01*
X91187320Y-91416827D01*
X91199500Y-91470420D01*
X91199500Y-92866608D01*
X91179815Y-92933647D01*
X91163182Y-92954289D01*
X91038470Y-93079001D01*
X91038467Y-93079005D01*
X91037734Y-93080194D01*
X91037019Y-93080836D01*
X91033993Y-93084664D01*
X91033338Y-93084146D01*
X90985780Y-93126911D01*
X90916816Y-93138123D01*
X90852738Y-93110271D01*
X90830738Y-93084877D01*
X90830612Y-93084977D01*
X90828385Y-93082161D01*
X90826663Y-93080173D01*
X90826130Y-93079309D01*
X90703191Y-92956370D01*
X90555214Y-92865096D01*
X90555209Y-92865094D01*
X90390173Y-92810407D01*
X90288315Y-92800000D01*
X90245000Y-92800000D01*
X90245000Y-95200000D01*
X90288303Y-95200000D01*
X90288315Y-95199999D01*
X90390173Y-95189592D01*
X90555209Y-95134905D01*
X90555214Y-95134903D01*
X90703191Y-95043629D01*
X90826128Y-94920692D01*
X90826659Y-94919832D01*
X90827180Y-94919363D01*
X90830612Y-94915023D01*
X90831353Y-94915608D01*
X90878601Y-94873102D01*
X90947563Y-94861872D01*
X91011648Y-94889708D01*
X91033913Y-94915398D01*
X91033993Y-94915336D01*
X91035390Y-94917103D01*
X91037738Y-94919812D01*
X91038468Y-94920995D01*
X91038474Y-94921003D01*
X91161496Y-95044025D01*
X91161500Y-95044028D01*
X91309566Y-95135357D01*
X91309569Y-95135358D01*
X91309575Y-95135362D01*
X91474725Y-95190087D01*
X91576652Y-95200500D01*
X91576657Y-95200500D01*
X92163343Y-95200500D01*
X92163348Y-95200500D01*
X92265275Y-95190087D01*
X92430425Y-95135362D01*
X92578503Y-95044026D01*
X92701526Y-94921003D01*
X92792862Y-94772925D01*
X92847587Y-94607775D01*
X92858000Y-94505848D01*
X92858000Y-93494152D01*
X92847587Y-93392225D01*
X92792862Y-93227075D01*
X92792858Y-93227069D01*
X92792857Y-93227066D01*
X92701528Y-93079000D01*
X92701525Y-93078996D01*
X92578502Y-92955973D01*
X92509402Y-92913351D01*
X92462678Y-92861402D01*
X92450500Y-92807813D01*
X92450500Y-91470420D01*
X92470185Y-91403381D01*
X92509402Y-91364881D01*
X92556156Y-91336045D01*
X92680212Y-91211989D01*
X92772314Y-91062667D01*
X92827499Y-90896130D01*
X92838000Y-90793342D01*
X92837999Y-89793325D01*
X92827499Y-89690536D01*
X92772314Y-89523999D01*
X92680212Y-89374677D01*
X92556156Y-89250621D01*
X92406834Y-89158519D01*
X92240297Y-89103334D01*
X92240295Y-89103333D01*
X92137510Y-89092833D01*
X91512498Y-89092833D01*
X91512480Y-89092834D01*
X91409703Y-89103333D01*
X91409700Y-89103334D01*
X91243168Y-89158518D01*
X91243163Y-89158520D01*
X91093842Y-89250622D01*
X91000181Y-89344284D01*
X90938858Y-89377769D01*
X90869166Y-89372785D01*
X90824819Y-89344284D01*
X90731157Y-89250622D01*
X90731156Y-89250621D01*
X90581834Y-89158519D01*
X90415297Y-89103334D01*
X90415295Y-89103333D01*
X90321396Y-89093740D01*
X90256705Y-89067343D01*
X90216554Y-89010162D01*
X90210000Y-88970382D01*
X90210000Y-87322948D01*
X90229685Y-87255909D01*
X90282489Y-87210154D01*
X90321396Y-87199591D01*
X90415297Y-87189999D01*
X90581834Y-87134814D01*
X90731156Y-87042712D01*
X90824821Y-86949046D01*
X90886140Y-86915564D01*
X90955832Y-86920548D01*
X91000180Y-86949048D01*
X91093844Y-87042712D01*
X91243166Y-87134814D01*
X91409703Y-87189999D01*
X91512491Y-87200500D01*
X91672046Y-87200499D01*
X91739086Y-87220183D01*
X91759728Y-87236818D01*
X95374181Y-90851271D01*
X95407666Y-90912594D01*
X95410500Y-90938952D01*
X95410500Y-94035032D01*
X95408772Y-94050681D01*
X95409054Y-94050708D01*
X95408319Y-94058475D01*
X95410469Y-94126890D01*
X95410500Y-94128837D01*
X95410500Y-94157477D01*
X95411371Y-94164380D01*
X95411829Y-94170199D01*
X95413298Y-94216942D01*
X95418916Y-94236275D01*
X95422862Y-94255329D01*
X95425383Y-94275287D01*
X95425386Y-94275299D01*
X95442595Y-94318765D01*
X95444487Y-94324293D01*
X95457530Y-94369187D01*
X95457530Y-94369188D01*
X95467777Y-94386515D01*
X95476335Y-94403985D01*
X95483745Y-94422701D01*
X95511229Y-94460529D01*
X95514437Y-94465413D01*
X95538234Y-94505652D01*
X95538240Y-94505660D01*
X95552469Y-94519888D01*
X95565109Y-94534687D01*
X95576934Y-94550964D01*
X95576936Y-94550965D01*
X95576937Y-94550967D01*
X95612957Y-94580765D01*
X95617268Y-94584687D01*
X95727775Y-94695194D01*
X95828181Y-94795600D01*
X95861666Y-94856923D01*
X95864500Y-94883281D01*
X95864500Y-95635701D01*
X95867401Y-95672567D01*
X95867402Y-95672573D01*
X95913254Y-95830393D01*
X95913255Y-95830396D01*
X95996917Y-95971862D01*
X95996923Y-95971870D01*
X96010925Y-95985872D01*
X96044410Y-96047195D01*
X96039426Y-96116887D01*
X96010925Y-96161234D01*
X93808979Y-98363181D01*
X93747656Y-98396666D01*
X93721298Y-98399500D01*
X85002153Y-98399500D01*
X84935114Y-98379815D01*
X84914472Y-98363181D01*
X83670472Y-97119181D01*
X83636987Y-97057858D01*
X83641971Y-96988166D01*
X83660690Y-96956046D01*
X83660389Y-96955836D01*
X83662916Y-96952226D01*
X83663179Y-96951776D01*
X83663481Y-96951414D01*
X83663495Y-96951401D01*
X83799035Y-96757830D01*
X83898903Y-96543663D01*
X83960063Y-96315408D01*
X83980659Y-96080000D01*
X83960063Y-95844592D01*
X83904090Y-95635694D01*
X83898905Y-95616344D01*
X83898904Y-95616343D01*
X83898903Y-95616337D01*
X83799035Y-95402171D01*
X83793425Y-95394158D01*
X83663494Y-95208597D01*
X83496402Y-95041506D01*
X83496401Y-95041505D01*
X83374746Y-94956321D01*
X83310841Y-94911574D01*
X83267216Y-94856997D01*
X83260024Y-94787498D01*
X83291546Y-94725144D01*
X83310836Y-94708428D01*
X83496401Y-94578495D01*
X83663495Y-94411401D01*
X83776509Y-94250000D01*
X89007500Y-94250000D01*
X89007500Y-94505815D01*
X89017907Y-94607673D01*
X89072594Y-94772709D01*
X89072596Y-94772714D01*
X89163870Y-94920691D01*
X89286808Y-95043629D01*
X89434785Y-95134903D01*
X89434790Y-95134905D01*
X89599826Y-95189592D01*
X89701684Y-95199999D01*
X89701697Y-95200000D01*
X89745000Y-95200000D01*
X89745000Y-94250000D01*
X89007500Y-94250000D01*
X83776509Y-94250000D01*
X83799035Y-94217830D01*
X83898903Y-94003663D01*
X83960063Y-93775408D01*
X83962286Y-93750000D01*
X89007500Y-93750000D01*
X89745000Y-93750000D01*
X89745000Y-92800000D01*
X89701684Y-92800000D01*
X89599826Y-92810407D01*
X89434790Y-92865094D01*
X89434785Y-92865096D01*
X89286808Y-92956370D01*
X89163870Y-93079308D01*
X89072596Y-93227285D01*
X89072594Y-93227290D01*
X89017907Y-93392326D01*
X89007500Y-93494184D01*
X89007500Y-93750000D01*
X83962286Y-93750000D01*
X83980659Y-93540000D01*
X83978745Y-93518129D01*
X83968854Y-93405069D01*
X83960063Y-93304592D01*
X83910444Y-93119408D01*
X83898905Y-93076344D01*
X83898904Y-93076343D01*
X83898903Y-93076337D01*
X83799035Y-92862171D01*
X83793425Y-92854158D01*
X83663494Y-92668597D01*
X83496402Y-92501506D01*
X83496401Y-92501505D01*
X83310842Y-92371575D01*
X83310841Y-92371574D01*
X83267216Y-92316997D01*
X83260024Y-92247498D01*
X83291546Y-92185144D01*
X83310836Y-92168428D01*
X83496401Y-92038495D01*
X83663495Y-91871401D01*
X83799035Y-91677830D01*
X83898903Y-91463663D01*
X83960063Y-91235408D01*
X83980659Y-91000000D01*
X83960063Y-90764592D01*
X83898903Y-90536337D01*
X83799035Y-90322171D01*
X83798755Y-90321770D01*
X83663494Y-90128597D01*
X83496402Y-89961506D01*
X83496401Y-89961505D01*
X83310842Y-89831575D01*
X83310841Y-89831574D01*
X83267216Y-89776997D01*
X83260024Y-89707498D01*
X83291546Y-89645144D01*
X83310836Y-89628428D01*
X83496401Y-89498495D01*
X83663495Y-89331401D01*
X83799035Y-89137830D01*
X83898903Y-88923663D01*
X83960063Y-88695408D01*
X83980659Y-88460000D01*
X83980370Y-88456702D01*
X83972673Y-88368717D01*
X83960063Y-88224592D01*
X83898903Y-87996337D01*
X83799035Y-87782171D01*
X83793424Y-87774158D01*
X83663496Y-87588600D01*
X83663493Y-87588597D01*
X83541179Y-87466283D01*
X83507696Y-87404963D01*
X83512680Y-87335271D01*
X83554551Y-87279337D01*
X83585529Y-87262422D01*
X83717086Y-87213354D01*
X83717093Y-87213350D01*
X83832187Y-87127190D01*
X83832190Y-87127187D01*
X83918350Y-87012093D01*
X83918354Y-87012086D01*
X83968596Y-86877379D01*
X83968598Y-86877372D01*
X83974999Y-86817844D01*
X83975000Y-86817827D01*
X83975000Y-86170000D01*
X83058686Y-86170000D01*
X83084493Y-86129844D01*
X83125000Y-85991889D01*
X83125000Y-85848111D01*
X83084493Y-85710156D01*
X83058686Y-85670000D01*
X83975000Y-85670000D01*
X83975000Y-85494500D01*
X83994685Y-85427461D01*
X84047489Y-85381706D01*
X84099000Y-85370500D01*
X88431719Y-85370500D01*
X88498758Y-85390185D01*
G37*
%TD.AperFunction*%
%TA.AperFunction,Conductor*%
G36*
X113803658Y-79647185D02*
G01*
X113849413Y-79699989D01*
X113859357Y-79769147D01*
X113830332Y-79832703D01*
X113812412Y-79848420D01*
X113812950Y-79849095D01*
X113632679Y-79992854D01*
X113484647Y-80162292D01*
X113484640Y-80162300D01*
X113369240Y-80355446D01*
X113369238Y-80355451D01*
X113290175Y-80566110D01*
X113290175Y-80566111D01*
X113250000Y-80787494D01*
X113250000Y-81700000D01*
X114626000Y-81700000D01*
X114693039Y-81719685D01*
X114738794Y-81772489D01*
X114750000Y-81824000D01*
X114750000Y-82076000D01*
X114730315Y-82143039D01*
X114688989Y-82178847D01*
X114656631Y-82165444D01*
X114539323Y-82150000D01*
X114460677Y-82150000D01*
X114343369Y-82165444D01*
X114259943Y-82200000D01*
X113250000Y-82200000D01*
X113250000Y-83056129D01*
X113265116Y-83224096D01*
X113265117Y-83224102D01*
X113324973Y-83440984D01*
X113324978Y-83440997D01*
X113422598Y-83643708D01*
X113422602Y-83643716D01*
X113554851Y-83825741D01*
X113554857Y-83825749D01*
X113717486Y-83981237D01*
X113905266Y-84105191D01*
X114112169Y-84193624D01*
X114112177Y-84193627D01*
X114224625Y-84219292D01*
X114285603Y-84253400D01*
X114318462Y-84315061D01*
X114312767Y-84384698D01*
X114284714Y-84427864D01*
X109581400Y-89131181D01*
X109520077Y-89164666D01*
X109493719Y-89167500D01*
X105209500Y-89167500D01*
X105142461Y-89147815D01*
X105096706Y-89095011D01*
X105085500Y-89043500D01*
X105085500Y-88904313D01*
X105085499Y-88904298D01*
X105082598Y-88867432D01*
X105082597Y-88867426D01*
X105036745Y-88709606D01*
X105036744Y-88709603D01*
X105036744Y-88709602D01*
X104953081Y-88568135D01*
X104953079Y-88568133D01*
X104953076Y-88568129D01*
X104836870Y-88451923D01*
X104836862Y-88451917D01*
X104758681Y-88405681D01*
X104695398Y-88368256D01*
X104695397Y-88368255D01*
X104695396Y-88368255D01*
X104695393Y-88368254D01*
X104537573Y-88322402D01*
X104537567Y-88322401D01*
X104500701Y-88319500D01*
X104500694Y-88319500D01*
X104069306Y-88319500D01*
X104069298Y-88319500D01*
X104032432Y-88322401D01*
X104032426Y-88322402D01*
X103874606Y-88368254D01*
X103874603Y-88368255D01*
X103733137Y-88451917D01*
X103726969Y-88456702D01*
X103725078Y-88454265D01*
X103676295Y-88480871D01*
X103606606Y-88475850D01*
X103574300Y-88455065D01*
X103573031Y-88456702D01*
X103566862Y-88451917D01*
X103488681Y-88405681D01*
X103425398Y-88368256D01*
X103425397Y-88368255D01*
X103425396Y-88368255D01*
X103425393Y-88368254D01*
X103267573Y-88322402D01*
X103267567Y-88322401D01*
X103230701Y-88319500D01*
X103230694Y-88319500D01*
X102799306Y-88319500D01*
X102799298Y-88319500D01*
X102762432Y-88322401D01*
X102762426Y-88322402D01*
X102604606Y-88368254D01*
X102604603Y-88368255D01*
X102463137Y-88451917D01*
X102456969Y-88456702D01*
X102455072Y-88454256D01*
X102406358Y-88480857D01*
X102336666Y-88475873D01*
X102304296Y-88455069D01*
X102303031Y-88456702D01*
X102296862Y-88451917D01*
X102218681Y-88405681D01*
X102155398Y-88368256D01*
X102155397Y-88368255D01*
X102155396Y-88368255D01*
X102155393Y-88368254D01*
X101997573Y-88322402D01*
X101997567Y-88322401D01*
X101960701Y-88319500D01*
X101960694Y-88319500D01*
X101529306Y-88319500D01*
X101529298Y-88319500D01*
X101492432Y-88322401D01*
X101492426Y-88322402D01*
X101334606Y-88368254D01*
X101334603Y-88368255D01*
X101193137Y-88451917D01*
X101186969Y-88456702D01*
X101185072Y-88454256D01*
X101136358Y-88480857D01*
X101066666Y-88475873D01*
X101034296Y-88455069D01*
X101033031Y-88456702D01*
X101026862Y-88451917D01*
X100948681Y-88405681D01*
X100885398Y-88368256D01*
X100885397Y-88368255D01*
X100885396Y-88368255D01*
X100885393Y-88368254D01*
X100727573Y-88322402D01*
X100727567Y-88322401D01*
X100690701Y-88319500D01*
X100690694Y-88319500D01*
X100259306Y-88319500D01*
X100259298Y-88319500D01*
X100222432Y-88322401D01*
X100222426Y-88322402D01*
X100064606Y-88368254D01*
X100064603Y-88368255D01*
X99923137Y-88451917D01*
X99916969Y-88456702D01*
X99915072Y-88454256D01*
X99866358Y-88480857D01*
X99796666Y-88475873D01*
X99764296Y-88455069D01*
X99763031Y-88456702D01*
X99756862Y-88451917D01*
X99678681Y-88405681D01*
X99615398Y-88368256D01*
X99615397Y-88368255D01*
X99615396Y-88368255D01*
X99615393Y-88368254D01*
X99457573Y-88322402D01*
X99457567Y-88322401D01*
X99420701Y-88319500D01*
X99420694Y-88319500D01*
X98989306Y-88319500D01*
X98989298Y-88319500D01*
X98952432Y-88322401D01*
X98952426Y-88322402D01*
X98794606Y-88368254D01*
X98794603Y-88368255D01*
X98653137Y-88451917D01*
X98646969Y-88456702D01*
X98645078Y-88454265D01*
X98596295Y-88480871D01*
X98526606Y-88475850D01*
X98494300Y-88455065D01*
X98493031Y-88456702D01*
X98486862Y-88451917D01*
X98408681Y-88405681D01*
X98345398Y-88368256D01*
X98345397Y-88368255D01*
X98345396Y-88368255D01*
X98345393Y-88368254D01*
X98187573Y-88322402D01*
X98187567Y-88322401D01*
X98150701Y-88319500D01*
X98150694Y-88319500D01*
X97719306Y-88319500D01*
X97719298Y-88319500D01*
X97682432Y-88322401D01*
X97682426Y-88322402D01*
X97524606Y-88368254D01*
X97524603Y-88368255D01*
X97383140Y-88451915D01*
X97376974Y-88456699D01*
X97375174Y-88454379D01*
X97325913Y-88481230D01*
X97256225Y-88476193D01*
X97223992Y-88455461D01*
X97222722Y-88457100D01*
X97216552Y-88452314D01*
X97075196Y-88368717D01*
X97075193Y-88368716D01*
X96917494Y-88322900D01*
X96917497Y-88322900D01*
X96915000Y-88322703D01*
X96915000Y-89921000D01*
X96895315Y-89988039D01*
X96842511Y-90033794D01*
X96791000Y-90045000D01*
X96539000Y-90045000D01*
X96471961Y-90025315D01*
X96426206Y-89972511D01*
X96415000Y-89921000D01*
X96415000Y-88322703D01*
X96412503Y-88322900D01*
X96254806Y-88368716D01*
X96254803Y-88368717D01*
X96113447Y-88452314D01*
X96113438Y-88452321D01*
X95997321Y-88568438D01*
X95997314Y-88568447D01*
X95913717Y-88709803D01*
X95913716Y-88709806D01*
X95867900Y-88867504D01*
X95867899Y-88867510D01*
X95865000Y-88904350D01*
X95865000Y-89273547D01*
X95845315Y-89340586D01*
X95792511Y-89386341D01*
X95723353Y-89396285D01*
X95659797Y-89367260D01*
X95653319Y-89361228D01*
X92874318Y-86582227D01*
X92840833Y-86520904D01*
X92837999Y-86494555D01*
X92837999Y-85499992D01*
X92833539Y-85456335D01*
X92827499Y-85397203D01*
X92827498Y-85397200D01*
X92776126Y-85242171D01*
X92772314Y-85230666D01*
X92680212Y-85081344D01*
X92556156Y-84957288D01*
X92463388Y-84900069D01*
X92406836Y-84865187D01*
X92406831Y-84865185D01*
X92405362Y-84864698D01*
X92240297Y-84810001D01*
X92240295Y-84810000D01*
X92137516Y-84799500D01*
X92137509Y-84799500D01*
X91969780Y-84799500D01*
X91902741Y-84779815D01*
X91856986Y-84727011D01*
X91847042Y-84657853D01*
X91876067Y-84594297D01*
X91882099Y-84587819D01*
X92716124Y-83753795D01*
X93681099Y-82788819D01*
X93742423Y-82755334D01*
X93768781Y-82752500D01*
X107542033Y-82752500D01*
X107557681Y-82754227D01*
X107557708Y-82753946D01*
X107565475Y-82754680D01*
X107565476Y-82754679D01*
X107565477Y-82754680D01*
X107572104Y-82754471D01*
X107633892Y-82752531D01*
X107635839Y-82752500D01*
X107664473Y-82752500D01*
X107664476Y-82752500D01*
X107671378Y-82751627D01*
X107677190Y-82751169D01*
X107723943Y-82749701D01*
X107743272Y-82744084D01*
X107762328Y-82740137D01*
X107782293Y-82737616D01*
X107825770Y-82720401D01*
X107831276Y-82718516D01*
X107876191Y-82705468D01*
X107893515Y-82695221D01*
X107910983Y-82686663D01*
X107929703Y-82679253D01*
X107967542Y-82651759D01*
X107972391Y-82648574D01*
X108012656Y-82624763D01*
X108026897Y-82610520D01*
X108041678Y-82597897D01*
X108057967Y-82586063D01*
X108057969Y-82586059D01*
X108057971Y-82586059D01*
X108069845Y-82571703D01*
X108087776Y-82550028D01*
X108091689Y-82545728D01*
X110973599Y-79663819D01*
X111034923Y-79630334D01*
X111061281Y-79627500D01*
X113736619Y-79627500D01*
X113803658Y-79647185D01*
G37*
%TD.AperFunction*%
%TA.AperFunction,Conductor*%
G36*
X122001050Y-70000536D02*
G01*
X122090467Y-70003590D01*
X122321882Y-70011496D01*
X122321882Y-70011540D01*
X122322069Y-70011502D01*
X122322371Y-70011512D01*
X122549031Y-70019608D01*
X122553125Y-70019891D01*
X122724036Y-70037461D01*
X122727865Y-70037977D01*
X123306081Y-70134346D01*
X123886336Y-70231055D01*
X123890796Y-70231969D01*
X123941090Y-70244225D01*
X124060051Y-70274588D01*
X124116430Y-70288978D01*
X124120703Y-70290233D01*
X124741649Y-70497216D01*
X124757872Y-70503936D01*
X125417875Y-70833937D01*
X125747871Y-70998936D01*
X125752036Y-71001221D01*
X126940478Y-71714286D01*
X126947476Y-71719170D01*
X127056636Y-71807137D01*
X127061556Y-71811556D01*
X127993766Y-72743767D01*
X127993767Y-72743767D01*
X128005286Y-72757048D01*
X128743291Y-73741055D01*
X128755000Y-73760001D01*
X129493911Y-75237823D01*
X129503300Y-75263203D01*
X129929379Y-76967516D01*
X129930877Y-76975937D01*
X129949558Y-77149721D01*
X129980104Y-77446849D01*
X129980390Y-77450978D01*
X129988502Y-77678115D01*
X129988503Y-77678115D01*
X129988503Y-77678124D01*
X129988535Y-77679028D01*
X129988535Y-77679078D01*
X129999464Y-77998950D01*
X129999500Y-78001067D01*
X129999500Y-106998932D01*
X129999464Y-107001049D01*
X129988506Y-107321788D01*
X129980390Y-107549020D01*
X129980105Y-107553148D01*
X129949560Y-107850268D01*
X129922214Y-108104635D01*
X129921667Y-108108544D01*
X129880412Y-108347820D01*
X129880109Y-108349445D01*
X129789527Y-108802355D01*
X129788968Y-108804875D01*
X129755816Y-108940919D01*
X129725411Y-109060047D01*
X129722899Y-109067749D01*
X129250958Y-110247604D01*
X129248846Y-110252307D01*
X129001068Y-110747864D01*
X128998777Y-110752037D01*
X128285712Y-111940477D01*
X128280818Y-111947490D01*
X128192871Y-112056625D01*
X128188432Y-112061566D01*
X127256232Y-112993767D01*
X127242951Y-113005286D01*
X126258943Y-113743292D01*
X126239997Y-113755001D01*
X125252307Y-114248846D01*
X125247604Y-114250958D01*
X124067749Y-114722899D01*
X124060053Y-114725409D01*
X123981376Y-114745490D01*
X123941019Y-114755791D01*
X123890820Y-114768024D01*
X123886332Y-114768943D01*
X122727850Y-114962022D01*
X122723996Y-114962541D01*
X122553148Y-114980105D01*
X122549020Y-114980390D01*
X122321980Y-114988499D01*
X122001049Y-114999464D01*
X121998932Y-114999500D01*
X78005319Y-114999500D01*
X77987783Y-114998254D01*
X76253168Y-114750452D01*
X76246894Y-114749223D01*
X75263204Y-114503301D01*
X75237826Y-114493913D01*
X73760000Y-113755000D01*
X73741055Y-113743291D01*
X72757048Y-113005286D01*
X72743767Y-112993767D01*
X72006233Y-112256232D01*
X71994714Y-112242951D01*
X71256708Y-111258944D01*
X71244999Y-111239998D01*
X70998932Y-110747864D01*
X70751148Y-110252297D01*
X70749046Y-110247616D01*
X70277096Y-109067740D01*
X70274593Y-109060067D01*
X70244216Y-108941055D01*
X70211013Y-108804803D01*
X70210472Y-108802363D01*
X70119875Y-108349379D01*
X70119616Y-108347986D01*
X70078327Y-108108516D01*
X70077788Y-108104669D01*
X70050437Y-107850258D01*
X70047187Y-107818642D01*
X70019891Y-107553130D01*
X70019608Y-107549020D01*
X70011493Y-107321788D01*
X70000536Y-107001048D01*
X70000500Y-106998932D01*
X70000500Y-94695196D01*
X78279840Y-94695196D01*
X78281091Y-94708425D01*
X78284225Y-94741583D01*
X78284500Y-94747421D01*
X78284500Y-99023956D01*
X78282775Y-99039573D01*
X78283061Y-99039600D01*
X78282326Y-99047367D01*
X78284469Y-99115547D01*
X78284500Y-99117494D01*
X78284500Y-99146044D01*
X78284501Y-99146061D01*
X78285368Y-99152932D01*
X78285826Y-99158751D01*
X78287290Y-99205325D01*
X78287291Y-99205328D01*
X78292880Y-99224568D01*
X78296824Y-99243612D01*
X78299336Y-99263492D01*
X78316490Y-99306820D01*
X78318382Y-99312348D01*
X78331381Y-99357089D01*
X78341580Y-99374335D01*
X78350138Y-99391804D01*
X78357514Y-99410433D01*
X78384898Y-99448124D01*
X78388106Y-99453008D01*
X78411827Y-99493117D01*
X78411833Y-99493125D01*
X78425990Y-99507281D01*
X78438628Y-99522077D01*
X78450405Y-99538287D01*
X78450406Y-99538288D01*
X78486309Y-99567989D01*
X78490620Y-99571911D01*
X79538025Y-100619317D01*
X79547496Y-100628788D01*
X79557321Y-100641051D01*
X79557542Y-100640869D01*
X79562510Y-100646874D01*
X79612231Y-100693566D01*
X79613631Y-100694923D01*
X79633822Y-100715115D01*
X79633826Y-100715118D01*
X79633828Y-100715120D01*
X79639310Y-100719373D01*
X79643742Y-100723157D01*
X79677717Y-100755062D01*
X79695275Y-100764714D01*
X79711532Y-100775393D01*
X79727363Y-100787673D01*
X79747036Y-100796186D01*
X79770132Y-100806182D01*
X79775376Y-100808750D01*
X79816207Y-100831197D01*
X79828822Y-100834435D01*
X79835604Y-100836177D01*
X79854018Y-100842481D01*
X79872403Y-100850438D01*
X79918456Y-100857732D01*
X79924125Y-100858906D01*
X79969280Y-100870500D01*
X79989315Y-100870500D01*
X80008712Y-100872026D01*
X80028495Y-100875160D01*
X80074882Y-100870775D01*
X80080721Y-100870500D01*
X95269008Y-100870500D01*
X95284628Y-100872224D01*
X95284655Y-100871939D01*
X95292417Y-100872673D01*
X95292417Y-100872672D01*
X95292418Y-100872673D01*
X95295750Y-100872568D01*
X95360598Y-100870531D01*
X95362545Y-100870500D01*
X95391098Y-100870500D01*
X95391101Y-100870500D01*
X95397979Y-100869630D01*
X95403792Y-100869172D01*
X95450378Y-100867709D01*
X95469620Y-100862117D01*
X95488663Y-100858174D01*
X95508543Y-100855664D01*
X95551873Y-100838507D01*
X95557397Y-100836617D01*
X95561147Y-100835527D01*
X95602141Y-100823618D01*
X95619380Y-100813422D01*
X95636854Y-100804862D01*
X95655478Y-100797488D01*
X95655478Y-100797487D01*
X95655483Y-100797486D01*
X95693200Y-100770082D01*
X95698056Y-100766892D01*
X95738171Y-100743170D01*
X95752340Y-100728999D01*
X95767130Y-100716368D01*
X95783338Y-100704594D01*
X95813050Y-100668676D01*
X95816963Y-100664376D01*
X97981340Y-98500000D01*
X100350001Y-98500000D01*
X100350001Y-98774986D01*
X100360494Y-98877697D01*
X100415641Y-99044119D01*
X100415643Y-99044124D01*
X100507684Y-99193345D01*
X100631654Y-99317315D01*
X100780875Y-99409356D01*
X100780880Y-99409358D01*
X100947302Y-99464505D01*
X100947309Y-99464506D01*
X101050019Y-99474999D01*
X101099999Y-99474998D01*
X101100000Y-99474998D01*
X101100000Y-98500000D01*
X100350001Y-98500000D01*
X97981340Y-98500000D01*
X98481340Y-98000000D01*
X100350000Y-98000000D01*
X101100000Y-98000000D01*
X101100000Y-97025000D01*
X101099999Y-97024999D01*
X101050029Y-97025000D01*
X101050011Y-97025001D01*
X100947302Y-97035494D01*
X100780880Y-97090641D01*
X100780875Y-97090643D01*
X100631654Y-97182684D01*
X100507684Y-97306654D01*
X100415643Y-97455875D01*
X100415641Y-97455880D01*
X100360494Y-97622302D01*
X100360493Y-97622309D01*
X100350000Y-97725013D01*
X100350000Y-98000000D01*
X98481340Y-98000000D01*
X100224522Y-96256819D01*
X100285846Y-96223334D01*
X100312204Y-96220500D01*
X100690686Y-96220500D01*
X100690694Y-96220500D01*
X100727569Y-96217598D01*
X100727571Y-96217597D01*
X100727573Y-96217597D01*
X100774363Y-96204003D01*
X100885398Y-96171744D01*
X101026865Y-96088081D01*
X101026870Y-96088076D01*
X101033026Y-96083301D01*
X101034839Y-96085638D01*
X101083949Y-96058798D01*
X101153643Y-96063756D01*
X101185996Y-96084551D01*
X101187278Y-96082900D01*
X101193447Y-96087685D01*
X101334801Y-96171281D01*
X101492514Y-96217100D01*
X101492511Y-96217100D01*
X101494998Y-96217295D01*
X101495000Y-96217295D01*
X101495000Y-93272703D01*
X101492503Y-93272900D01*
X101334806Y-93318716D01*
X101334803Y-93318717D01*
X101193449Y-93402313D01*
X101187283Y-93407097D01*
X101185389Y-93404655D01*
X101136580Y-93431239D01*
X101066894Y-93426179D01*
X101034227Y-93405159D01*
X101033031Y-93406702D01*
X101026862Y-93401917D01*
X100931502Y-93345522D01*
X100885398Y-93318256D01*
X100885397Y-93318255D01*
X100885396Y-93318255D01*
X100885393Y-93318254D01*
X100727573Y-93272402D01*
X100727567Y-93272401D01*
X100690701Y-93269500D01*
X100690694Y-93269500D01*
X100259306Y-93269500D01*
X100259298Y-93269500D01*
X100222432Y-93272401D01*
X100222426Y-93272402D01*
X100064606Y-93318254D01*
X100064603Y-93318255D01*
X99923137Y-93401917D01*
X99916969Y-93406702D01*
X99915072Y-93404256D01*
X99866358Y-93430857D01*
X99796666Y-93425873D01*
X99764296Y-93405069D01*
X99763031Y-93406702D01*
X99756862Y-93401917D01*
X99661502Y-93345522D01*
X99615398Y-93318256D01*
X99615397Y-93318255D01*
X99615396Y-93318255D01*
X99615393Y-93318254D01*
X99457573Y-93272402D01*
X99457567Y-93272401D01*
X99420701Y-93269500D01*
X99420694Y-93269500D01*
X98989306Y-93269500D01*
X98989298Y-93269500D01*
X98952432Y-93272401D01*
X98952426Y-93272402D01*
X98794606Y-93318254D01*
X98794603Y-93318255D01*
X98653137Y-93401917D01*
X98646969Y-93406702D01*
X98645072Y-93404256D01*
X98596358Y-93430857D01*
X98526666Y-93425873D01*
X98494296Y-93405069D01*
X98493031Y-93406702D01*
X98486862Y-93401917D01*
X98391502Y-93345522D01*
X98345398Y-93318256D01*
X98345397Y-93318255D01*
X98345396Y-93318255D01*
X98345393Y-93318254D01*
X98187573Y-93272402D01*
X98187567Y-93272401D01*
X98150701Y-93269500D01*
X98150694Y-93269500D01*
X97719306Y-93269500D01*
X97719298Y-93269500D01*
X97682432Y-93272401D01*
X97682426Y-93272402D01*
X97524606Y-93318254D01*
X97524603Y-93318255D01*
X97383137Y-93401917D01*
X97376969Y-93406702D01*
X97375072Y-93404256D01*
X97326358Y-93430857D01*
X97256666Y-93425873D01*
X97224296Y-93405069D01*
X97223031Y-93406702D01*
X97216862Y-93401917D01*
X97121502Y-93345522D01*
X97075398Y-93318256D01*
X97075397Y-93318255D01*
X97075396Y-93318255D01*
X97075393Y-93318254D01*
X96917573Y-93272402D01*
X96917567Y-93272401D01*
X96880701Y-93269500D01*
X96880694Y-93269500D01*
X96789500Y-93269500D01*
X96722461Y-93249815D01*
X96676706Y-93197011D01*
X96665500Y-93145500D01*
X96665500Y-91394000D01*
X96685185Y-91326961D01*
X96737989Y-91281206D01*
X96789500Y-91270000D01*
X96880634Y-91270000D01*
X96880649Y-91269999D01*
X96917489Y-91267100D01*
X96917495Y-91267099D01*
X97075193Y-91221283D01*
X97075196Y-91221282D01*
X97216550Y-91137686D01*
X97222717Y-91132903D01*
X97224630Y-91135369D01*
X97273222Y-91108802D01*
X97342917Y-91113749D01*
X97375762Y-91134853D01*
X97376969Y-91133298D01*
X97383132Y-91138078D01*
X97383135Y-91138081D01*
X97524602Y-91221744D01*
X97566224Y-91233836D01*
X97682426Y-91267597D01*
X97682429Y-91267597D01*
X97682431Y-91267598D01*
X97719306Y-91270500D01*
X97719314Y-91270500D01*
X98150686Y-91270500D01*
X98150694Y-91270500D01*
X98187569Y-91267598D01*
X98187571Y-91267597D01*
X98187573Y-91267597D01*
X98298349Y-91235413D01*
X98345398Y-91221744D01*
X98486865Y-91138081D01*
X98486868Y-91138077D01*
X98493026Y-91133301D01*
X98494927Y-91135752D01*
X98543579Y-91109154D01*
X98613274Y-91114103D01*
X98645700Y-91134942D01*
X98646974Y-91133301D01*
X98653139Y-91138084D01*
X98698015Y-91164623D01*
X98794602Y-91221744D01*
X98836224Y-91233836D01*
X98952426Y-91267597D01*
X98952429Y-91267597D01*
X98952431Y-91267598D01*
X98989306Y-91270500D01*
X98989314Y-91270500D01*
X99420686Y-91270500D01*
X99420694Y-91270500D01*
X99457569Y-91267598D01*
X99457571Y-91267597D01*
X99457573Y-91267597D01*
X99568349Y-91235413D01*
X99615398Y-91221744D01*
X99756865Y-91138081D01*
X99756868Y-91138077D01*
X99763026Y-91133301D01*
X99764927Y-91135752D01*
X99813579Y-91109154D01*
X99883274Y-91114103D01*
X99915700Y-91134942D01*
X99916974Y-91133301D01*
X99923139Y-91138084D01*
X99968015Y-91164623D01*
X100064602Y-91221744D01*
X100106224Y-91233836D01*
X100222426Y-91267597D01*
X100222429Y-91267597D01*
X100222431Y-91267598D01*
X100259306Y-91270500D01*
X100259314Y-91270500D01*
X100690686Y-91270500D01*
X100690694Y-91270500D01*
X100727569Y-91267598D01*
X100727571Y-91267597D01*
X100727573Y-91267597D01*
X100838349Y-91235413D01*
X100885398Y-91221744D01*
X101026865Y-91138081D01*
X101026868Y-91138077D01*
X101033026Y-91133301D01*
X101034927Y-91135752D01*
X101083579Y-91109154D01*
X101153274Y-91114103D01*
X101185700Y-91134942D01*
X101186974Y-91133301D01*
X101193139Y-91138084D01*
X101238015Y-91164623D01*
X101334602Y-91221744D01*
X101376224Y-91233836D01*
X101492426Y-91267597D01*
X101492429Y-91267597D01*
X101492431Y-91267598D01*
X101529306Y-91270500D01*
X101529314Y-91270500D01*
X101960686Y-91270500D01*
X101960694Y-91270500D01*
X101997569Y-91267598D01*
X101997571Y-91267597D01*
X101997573Y-91267597D01*
X102108349Y-91235413D01*
X102155398Y-91221744D01*
X102296865Y-91138081D01*
X102296868Y-91138077D01*
X102303026Y-91133301D01*
X102304927Y-91135752D01*
X102353579Y-91109154D01*
X102423274Y-91114103D01*
X102455700Y-91134942D01*
X102456974Y-91133301D01*
X102463139Y-91138084D01*
X102508015Y-91164623D01*
X102604602Y-91221744D01*
X102646224Y-91233836D01*
X102762426Y-91267597D01*
X102762429Y-91267597D01*
X102762431Y-91267598D01*
X102799306Y-91270500D01*
X103172139Y-91270500D01*
X103239178Y-91290185D01*
X103259820Y-91306819D01*
X104913044Y-92960043D01*
X104922891Y-92972333D01*
X104923109Y-92972154D01*
X104928076Y-92978159D01*
X104945974Y-92994966D01*
X104978001Y-93025041D01*
X104979342Y-93026341D01*
X104999625Y-93046624D01*
X105005126Y-93050891D01*
X105009565Y-93054682D01*
X105043653Y-93086693D01*
X105061304Y-93096396D01*
X105077554Y-93107071D01*
X105081679Y-93110271D01*
X105093458Y-93119408D01*
X105093461Y-93119410D01*
X105136362Y-93137974D01*
X105141610Y-93140544D01*
X105182586Y-93163072D01*
X105201660Y-93167969D01*
X105202080Y-93168077D01*
X105220484Y-93174377D01*
X105238962Y-93182374D01*
X105282458Y-93189262D01*
X105285144Y-93189688D01*
X105290849Y-93190869D01*
X105336148Y-93202500D01*
X105356278Y-93202500D01*
X105375677Y-93204027D01*
X105395553Y-93207175D01*
X105438199Y-93203143D01*
X105442099Y-93202775D01*
X105447937Y-93202500D01*
X125005809Y-93202500D01*
X125072848Y-93222185D01*
X125102754Y-93249185D01*
X125117492Y-93267666D01*
X125161510Y-93306124D01*
X125199044Y-93365055D01*
X125198758Y-93434924D01*
X125169552Y-93485195D01*
X125043369Y-93617173D01*
X124919365Y-93805030D01*
X124907314Y-93833227D01*
X124890640Y-93872235D01*
X124846194Y-93926143D01*
X124779656Y-93947463D01*
X124776620Y-93947500D01*
X105207459Y-93947500D01*
X105140420Y-93927815D01*
X105094665Y-93875011D01*
X105083841Y-93833227D01*
X105082598Y-93817432D01*
X105082597Y-93817426D01*
X105036745Y-93659606D01*
X105036744Y-93659603D01*
X105036744Y-93659602D01*
X104953081Y-93518135D01*
X104953079Y-93518133D01*
X104953076Y-93518129D01*
X104836870Y-93401923D01*
X104836862Y-93401917D01*
X104741502Y-93345522D01*
X104695398Y-93318256D01*
X104695397Y-93318255D01*
X104695396Y-93318255D01*
X104695393Y-93318254D01*
X104537573Y-93272402D01*
X104537567Y-93272401D01*
X104500701Y-93269500D01*
X104500694Y-93269500D01*
X104069306Y-93269500D01*
X104069298Y-93269500D01*
X104032432Y-93272401D01*
X104032426Y-93272402D01*
X103874606Y-93318254D01*
X103874603Y-93318255D01*
X103733137Y-93401917D01*
X103726969Y-93406702D01*
X103725072Y-93404256D01*
X103676358Y-93430857D01*
X103606666Y-93425873D01*
X103574296Y-93405069D01*
X103573031Y-93406702D01*
X103566862Y-93401917D01*
X103471502Y-93345522D01*
X103425398Y-93318256D01*
X103425397Y-93318255D01*
X103425396Y-93318255D01*
X103425393Y-93318254D01*
X103267573Y-93272402D01*
X103267567Y-93272401D01*
X103230701Y-93269500D01*
X103230694Y-93269500D01*
X102799306Y-93269500D01*
X102799298Y-93269500D01*
X102762432Y-93272401D01*
X102762426Y-93272402D01*
X102604606Y-93318254D01*
X102604603Y-93318255D01*
X102463140Y-93401915D01*
X102456974Y-93406699D01*
X102455174Y-93404379D01*
X102405913Y-93431230D01*
X102336225Y-93426193D01*
X102303992Y-93405461D01*
X102302722Y-93407100D01*
X102296552Y-93402314D01*
X102155196Y-93318717D01*
X102155193Y-93318716D01*
X101997494Y-93272900D01*
X101997497Y-93272900D01*
X101995000Y-93272703D01*
X101995000Y-96217295D01*
X101995001Y-96217295D01*
X101997486Y-96217100D01*
X102155199Y-96171281D01*
X102200378Y-96144562D01*
X102268101Y-96127378D01*
X102334364Y-96149537D01*
X102378128Y-96204003D01*
X102387500Y-96251293D01*
X102387500Y-97202477D01*
X102367815Y-97269516D01*
X102315011Y-97315271D01*
X102245853Y-97325215D01*
X102182297Y-97296190D01*
X102175819Y-97290158D01*
X102068345Y-97182684D01*
X101919124Y-97090643D01*
X101919119Y-97090641D01*
X101752697Y-97035494D01*
X101752690Y-97035493D01*
X101649986Y-97025000D01*
X101600000Y-97025000D01*
X101600000Y-99474999D01*
X101649972Y-99474999D01*
X101649986Y-99474998D01*
X101752697Y-99464505D01*
X101919119Y-99409358D01*
X101919124Y-99409356D01*
X102068345Y-99317315D01*
X102192318Y-99193342D01*
X102194165Y-99190348D01*
X102195969Y-99188724D01*
X102196798Y-99187677D01*
X102196976Y-99187818D01*
X102246110Y-99143621D01*
X102315073Y-99132396D01*
X102379156Y-99160236D01*
X102405243Y-99190341D01*
X102407288Y-99193656D01*
X102531344Y-99317712D01*
X102680666Y-99409814D01*
X102847203Y-99464999D01*
X102949991Y-99475500D01*
X103550008Y-99475499D01*
X103550016Y-99475498D01*
X103550019Y-99475498D01*
X103606302Y-99469748D01*
X103652797Y-99464999D01*
X103819334Y-99409814D01*
X103968656Y-99317712D01*
X104092712Y-99193656D01*
X104184814Y-99044334D01*
X104239999Y-98877797D01*
X104250500Y-98775009D01*
X104250499Y-97724992D01*
X104239999Y-97622203D01*
X104184814Y-97455666D01*
X104092712Y-97306344D01*
X103968656Y-97182288D01*
X103819334Y-97090186D01*
X103727495Y-97059753D01*
X103670051Y-97019981D01*
X103643228Y-96955465D01*
X103642500Y-96942048D01*
X103642500Y-96251874D01*
X103662185Y-96184835D01*
X103714989Y-96139080D01*
X103784147Y-96129136D01*
X103829619Y-96145141D01*
X103874602Y-96171744D01*
X103916224Y-96183836D01*
X104032426Y-96217597D01*
X104032429Y-96217597D01*
X104032431Y-96217598D01*
X104069306Y-96220500D01*
X104069314Y-96220500D01*
X104500686Y-96220500D01*
X104500694Y-96220500D01*
X104537569Y-96217598D01*
X104537571Y-96217597D01*
X104537573Y-96217597D01*
X104584363Y-96204003D01*
X104695398Y-96171744D01*
X104836865Y-96088081D01*
X104953081Y-95971865D01*
X105036744Y-95830398D01*
X105082598Y-95672569D01*
X105085500Y-95635694D01*
X105085500Y-95326499D01*
X105105185Y-95259461D01*
X105157989Y-95213706D01*
X105209500Y-95202500D01*
X125005809Y-95202500D01*
X125072848Y-95222185D01*
X125102754Y-95249185D01*
X125117492Y-95267666D01*
X125287004Y-95415765D01*
X125480236Y-95531215D01*
X125684741Y-95607967D01*
X125690976Y-95610307D01*
X125912450Y-95650500D01*
X125912453Y-95650500D01*
X128181148Y-95650500D01*
X128181155Y-95650500D01*
X128349188Y-95635377D01*
X128418152Y-95616344D01*
X128566160Y-95575496D01*
X128566162Y-95575495D01*
X128566170Y-95575493D01*
X128768973Y-95477829D01*
X128951078Y-95345522D01*
X129106632Y-95182825D01*
X129230635Y-94994968D01*
X129319103Y-94787988D01*
X129369191Y-94568537D01*
X129379290Y-94343670D01*
X129349075Y-94120613D01*
X129279517Y-93906536D01*
X129172852Y-93708319D01*
X129032508Y-93532334D01*
X129032507Y-93532333D01*
X128988489Y-93493875D01*
X128950955Y-93434943D01*
X128951241Y-93365074D01*
X128980448Y-93314803D01*
X128990211Y-93304592D01*
X129106632Y-93182825D01*
X129230635Y-92994968D01*
X129287396Y-92862171D01*
X129319100Y-92787995D01*
X129319099Y-92787995D01*
X129319103Y-92787988D01*
X129369191Y-92568537D01*
X129379290Y-92343670D01*
X129349075Y-92120613D01*
X129279517Y-91906536D01*
X129172852Y-91708319D01*
X129032508Y-91532334D01*
X128997276Y-91501552D01*
X128988111Y-91493545D01*
X128950578Y-91434613D01*
X128950864Y-91364744D01*
X128980071Y-91314473D01*
X129106237Y-91182513D01*
X129230191Y-90994733D01*
X129318624Y-90787830D01*
X129318627Y-90787821D01*
X129350084Y-90650000D01*
X126820882Y-90650000D01*
X126859556Y-90556631D01*
X126880177Y-90400000D01*
X126859556Y-90243369D01*
X126820882Y-90150000D01*
X126825000Y-90150000D01*
X126825000Y-89150000D01*
X127325000Y-89150000D01*
X127325000Y-90150000D01*
X129352550Y-90150000D01*
X129352550Y-90149999D01*
X129348584Y-90120721D01*
X129279054Y-89906731D01*
X129172434Y-89708598D01*
X129172432Y-89708595D01*
X129032145Y-89532679D01*
X128862707Y-89384647D01*
X128862699Y-89384640D01*
X128669553Y-89269240D01*
X128669548Y-89269238D01*
X128458889Y-89190175D01*
X128237506Y-89150000D01*
X127325000Y-89150000D01*
X126825000Y-89150000D01*
X125968870Y-89150000D01*
X125800903Y-89165116D01*
X125800897Y-89165117D01*
X125584015Y-89224973D01*
X125584002Y-89224978D01*
X125381291Y-89322598D01*
X125381283Y-89322602D01*
X125199258Y-89454851D01*
X125199250Y-89454857D01*
X125043762Y-89617486D01*
X124919808Y-89805266D01*
X124831375Y-90012169D01*
X124831372Y-90012178D01*
X124799915Y-90149999D01*
X124799916Y-90150000D01*
X125729118Y-90150000D01*
X125690444Y-90243369D01*
X125669823Y-90400000D01*
X125690444Y-90556631D01*
X125729118Y-90650000D01*
X124797449Y-90650000D01*
X124801415Y-90679278D01*
X124870945Y-90893268D01*
X124977565Y-91091401D01*
X124977567Y-91091404D01*
X125117854Y-91267319D01*
X125161854Y-91305760D01*
X125199389Y-91364692D01*
X125199105Y-91434561D01*
X125169898Y-91484833D01*
X125043369Y-91617173D01*
X124919365Y-91805030D01*
X124902865Y-91843634D01*
X124890640Y-91872235D01*
X124846194Y-91926143D01*
X124779656Y-91947463D01*
X124776620Y-91947500D01*
X105726701Y-91947500D01*
X105659662Y-91927815D01*
X105639020Y-91911181D01*
X104939073Y-91211234D01*
X104905588Y-91149911D01*
X104910572Y-91080219D01*
X104939073Y-91035872D01*
X104953081Y-91021865D01*
X105036744Y-90880398D01*
X105082598Y-90722569D01*
X105085500Y-90685694D01*
X105085500Y-90546499D01*
X105105185Y-90479461D01*
X105157989Y-90433706D01*
X105209500Y-90422500D01*
X109722033Y-90422500D01*
X109737681Y-90424227D01*
X109737708Y-90423946D01*
X109745475Y-90424680D01*
X109745476Y-90424679D01*
X109745477Y-90424680D01*
X109752104Y-90424471D01*
X109813892Y-90422531D01*
X109815839Y-90422500D01*
X109844473Y-90422500D01*
X109844476Y-90422500D01*
X109851378Y-90421627D01*
X109857190Y-90421169D01*
X109903943Y-90419701D01*
X109923272Y-90414084D01*
X109942328Y-90410137D01*
X109962293Y-90407616D01*
X110005770Y-90390401D01*
X110011276Y-90388516D01*
X110056191Y-90375468D01*
X110073515Y-90365221D01*
X110090983Y-90356663D01*
X110109703Y-90349253D01*
X110147542Y-90321759D01*
X110152391Y-90318574D01*
X110192656Y-90294763D01*
X110206897Y-90280520D01*
X110221678Y-90267897D01*
X110237967Y-90256063D01*
X110237969Y-90256059D01*
X110237971Y-90256059D01*
X110257828Y-90232054D01*
X110267776Y-90220028D01*
X110271689Y-90215728D01*
X116211166Y-84276251D01*
X116272487Y-84242768D01*
X116326441Y-84243044D01*
X116331463Y-84244191D01*
X116556330Y-84254290D01*
X116779387Y-84224075D01*
X116993464Y-84154517D01*
X117191681Y-84047852D01*
X117367666Y-83907508D01*
X117406123Y-83863489D01*
X117465054Y-83825956D01*
X117534923Y-83826240D01*
X117585195Y-83855446D01*
X117703046Y-83968124D01*
X117717176Y-83981633D01*
X117905033Y-84105636D01*
X118112004Y-84194100D01*
X118112007Y-84194101D01*
X118112012Y-84194103D01*
X118331463Y-84244191D01*
X118556330Y-84254290D01*
X118779387Y-84224075D01*
X118993464Y-84154517D01*
X119191681Y-84047852D01*
X119367666Y-83907508D01*
X119515765Y-83737996D01*
X119631215Y-83544764D01*
X119710307Y-83334024D01*
X119750500Y-83112547D01*
X119750500Y-80843845D01*
X119735377Y-80675812D01*
X119735376Y-80675807D01*
X119675496Y-80458839D01*
X119675491Y-80458826D01*
X119577832Y-80256033D01*
X119577828Y-80256025D01*
X119445526Y-80073927D01*
X119445525Y-80073925D01*
X119368205Y-80000000D01*
X119282825Y-79918368D01*
X119282823Y-79918366D01*
X119094966Y-79794363D01*
X118887995Y-79705899D01*
X118887982Y-79705895D01*
X118668542Y-79655810D01*
X118668538Y-79655809D01*
X118668537Y-79655809D01*
X118668536Y-79655808D01*
X118668531Y-79655808D01*
X118443674Y-79645710D01*
X118443673Y-79645710D01*
X118443670Y-79645710D01*
X118220613Y-79675925D01*
X118220610Y-79675925D01*
X118220609Y-79675926D01*
X118006533Y-79745484D01*
X118006531Y-79745485D01*
X117924878Y-79789424D01*
X117856516Y-79803858D01*
X117791202Y-79779040D01*
X117778438Y-79767911D01*
X116625484Y-78614957D01*
X116615639Y-78602668D01*
X116615421Y-78602849D01*
X116610448Y-78596837D01*
X116560551Y-78549981D01*
X116559151Y-78548624D01*
X116538905Y-78528377D01*
X116533404Y-78524111D01*
X116528956Y-78520312D01*
X116494876Y-78488308D01*
X116494871Y-78488304D01*
X116477230Y-78478606D01*
X116460965Y-78467922D01*
X116445071Y-78455593D01*
X116445070Y-78455592D01*
X116422320Y-78445747D01*
X116402162Y-78437023D01*
X116396915Y-78434453D01*
X116355945Y-78411929D01*
X116355936Y-78411926D01*
X116336442Y-78406920D01*
X116318041Y-78400620D01*
X116299567Y-78392626D01*
X116299560Y-78392624D01*
X116253395Y-78385313D01*
X116247671Y-78384128D01*
X116202387Y-78372500D01*
X116202380Y-78372500D01*
X116182250Y-78372500D01*
X116162851Y-78370973D01*
X116142976Y-78367825D01*
X116142975Y-78367825D01*
X116096429Y-78372225D01*
X116090591Y-78372500D01*
X110832965Y-78372500D01*
X110817314Y-78370772D01*
X110817288Y-78371054D01*
X110809525Y-78370319D01*
X110741121Y-78372469D01*
X110739174Y-78372500D01*
X110710521Y-78372500D01*
X110703607Y-78373373D01*
X110697790Y-78373830D01*
X110651058Y-78375299D01*
X110651054Y-78375300D01*
X110631722Y-78380916D01*
X110612682Y-78384859D01*
X110592712Y-78387382D01*
X110592708Y-78387383D01*
X110549237Y-78404594D01*
X110543710Y-78406486D01*
X110498812Y-78419530D01*
X110498805Y-78419533D01*
X110481480Y-78429779D01*
X110464010Y-78438337D01*
X110445298Y-78445745D01*
X110407463Y-78473233D01*
X110402580Y-78476440D01*
X110362346Y-78500234D01*
X110348106Y-78514474D01*
X110333320Y-78527102D01*
X110317033Y-78538936D01*
X110317032Y-78538936D01*
X110287227Y-78574963D01*
X110283295Y-78579284D01*
X107401400Y-81461181D01*
X107340077Y-81494666D01*
X107313719Y-81497500D01*
X93540465Y-81497500D01*
X93524814Y-81495772D01*
X93524788Y-81496054D01*
X93517025Y-81495319D01*
X93448621Y-81497469D01*
X93446674Y-81497500D01*
X93418021Y-81497500D01*
X93411107Y-81498373D01*
X93405290Y-81498830D01*
X93358558Y-81500299D01*
X93358554Y-81500300D01*
X93339222Y-81505916D01*
X93320182Y-81509859D01*
X93300212Y-81512382D01*
X93300208Y-81512383D01*
X93256737Y-81529594D01*
X93251210Y-81531486D01*
X93206312Y-81544530D01*
X93206305Y-81544533D01*
X93188980Y-81554779D01*
X93171510Y-81563337D01*
X93152798Y-81570745D01*
X93114963Y-81598233D01*
X93110080Y-81601440D01*
X93069846Y-81625234D01*
X93055606Y-81639474D01*
X93040820Y-81652102D01*
X93024533Y-81663936D01*
X93024532Y-81663936D01*
X92994727Y-81699963D01*
X92990795Y-81704285D01*
X89931898Y-84763181D01*
X89870575Y-84796666D01*
X89844217Y-84799500D01*
X89738281Y-84799500D01*
X89671242Y-84779815D01*
X89650600Y-84763181D01*
X89245376Y-84357957D01*
X89235531Y-84345668D01*
X89235313Y-84345849D01*
X89230340Y-84339837D01*
X89180443Y-84292981D01*
X89179043Y-84291624D01*
X89158797Y-84271377D01*
X89153296Y-84267111D01*
X89148848Y-84263312D01*
X89114768Y-84231308D01*
X89114763Y-84231304D01*
X89097122Y-84221606D01*
X89080857Y-84210922D01*
X89064963Y-84198593D01*
X89064962Y-84198592D01*
X89042212Y-84188747D01*
X89022054Y-84180023D01*
X89016807Y-84177453D01*
X88975837Y-84154929D01*
X88975828Y-84154926D01*
X88956334Y-84149920D01*
X88937933Y-84143620D01*
X88919459Y-84135626D01*
X88919452Y-84135624D01*
X88873287Y-84128313D01*
X88867563Y-84127128D01*
X88822279Y-84115500D01*
X88822272Y-84115500D01*
X88802142Y-84115500D01*
X88782743Y-84113973D01*
X88762868Y-84110825D01*
X88762867Y-84110825D01*
X88716321Y-84115225D01*
X88710483Y-84115500D01*
X81344965Y-84115500D01*
X81329314Y-84113772D01*
X81329288Y-84114054D01*
X81321525Y-84113319D01*
X81253121Y-84115469D01*
X81251174Y-84115500D01*
X81222521Y-84115500D01*
X81215607Y-84116373D01*
X81209790Y-84116830D01*
X81163058Y-84118299D01*
X81163054Y-84118300D01*
X81143722Y-84123916D01*
X81124682Y-84127859D01*
X81104712Y-84130382D01*
X81104708Y-84130383D01*
X81061237Y-84147594D01*
X81055710Y-84149486D01*
X81010812Y-84162530D01*
X81010805Y-84162533D01*
X80993480Y-84172779D01*
X80976010Y-84181337D01*
X80957298Y-84188745D01*
X80919463Y-84216233D01*
X80914580Y-84219440D01*
X80874346Y-84243234D01*
X80860106Y-84257474D01*
X80845320Y-84270102D01*
X80829033Y-84281936D01*
X80829032Y-84281936D01*
X80799227Y-84317963D01*
X80795295Y-84322285D01*
X80538415Y-84579164D01*
X80477092Y-84612649D01*
X80418641Y-84611258D01*
X80320413Y-84584938D01*
X80320403Y-84584936D01*
X80085001Y-84564341D01*
X80084999Y-84564341D01*
X79849596Y-84584936D01*
X79849586Y-84584938D01*
X79621344Y-84646094D01*
X79621335Y-84646098D01*
X79407171Y-84745964D01*
X79407169Y-84745965D01*
X79213597Y-84881505D01*
X79046505Y-85048597D01*
X78910965Y-85242169D01*
X78910964Y-85242171D01*
X78811098Y-85456335D01*
X78811094Y-85456344D01*
X78749938Y-85684586D01*
X78749936Y-85684596D01*
X78729341Y-85919999D01*
X78729341Y-85920000D01*
X78749936Y-86155403D01*
X78749938Y-86155413D01*
X78811094Y-86383655D01*
X78811096Y-86383659D01*
X78811097Y-86383663D01*
X78862803Y-86494546D01*
X78910965Y-86597830D01*
X78910967Y-86597834D01*
X79046501Y-86791395D01*
X79046506Y-86791402D01*
X79213597Y-86958493D01*
X79213603Y-86958498D01*
X79399158Y-87088425D01*
X79442783Y-87143002D01*
X79449977Y-87212500D01*
X79418454Y-87274855D01*
X79399158Y-87291575D01*
X79213597Y-87421505D01*
X79046505Y-87588597D01*
X78910965Y-87782169D01*
X78910964Y-87782171D01*
X78811098Y-87996335D01*
X78811094Y-87996344D01*
X78749938Y-88224586D01*
X78749936Y-88224596D01*
X78729341Y-88459999D01*
X78729341Y-88460000D01*
X78749936Y-88695403D01*
X78749938Y-88695413D01*
X78811094Y-88923655D01*
X78811096Y-88923659D01*
X78811097Y-88923663D01*
X78890998Y-89095011D01*
X78910965Y-89137830D01*
X78910967Y-89137834D01*
X78989942Y-89250621D01*
X79046501Y-89331396D01*
X79046506Y-89331402D01*
X79213597Y-89498493D01*
X79213603Y-89498498D01*
X79399158Y-89628425D01*
X79442783Y-89683002D01*
X79449977Y-89752500D01*
X79418454Y-89814855D01*
X79399158Y-89831575D01*
X79213597Y-89961505D01*
X79046505Y-90128597D01*
X78910965Y-90322169D01*
X78910964Y-90322171D01*
X78811098Y-90536335D01*
X78811094Y-90536344D01*
X78749938Y-90764586D01*
X78749936Y-90764596D01*
X78729341Y-90999999D01*
X78729341Y-91000000D01*
X78749936Y-91235403D01*
X78749938Y-91235413D01*
X78811094Y-91463655D01*
X78811096Y-91463659D01*
X78811097Y-91463663D01*
X78825166Y-91493833D01*
X78910965Y-91677830D01*
X78910967Y-91677834D01*
X79000031Y-91805030D01*
X79046501Y-91871396D01*
X79046506Y-91871402D01*
X79213597Y-92038493D01*
X79213603Y-92038498D01*
X79399158Y-92168425D01*
X79442783Y-92223002D01*
X79449977Y-92292500D01*
X79418454Y-92354855D01*
X79399158Y-92371575D01*
X79213597Y-92501505D01*
X79046505Y-92668597D01*
X78910965Y-92862169D01*
X78910964Y-92862171D01*
X78811098Y-93076335D01*
X78811094Y-93076344D01*
X78749938Y-93304586D01*
X78749936Y-93304596D01*
X78729341Y-93539999D01*
X78729341Y-93540000D01*
X78749937Y-93775408D01*
X78776855Y-93875873D01*
X78775192Y-93945723D01*
X78744761Y-93995646D01*
X78526208Y-94214199D01*
X78513951Y-94224020D01*
X78514134Y-94224241D01*
X78508122Y-94229214D01*
X78461432Y-94278932D01*
X78460079Y-94280329D01*
X78439889Y-94300519D01*
X78439877Y-94300532D01*
X78435621Y-94306017D01*
X78431837Y-94310447D01*
X78399937Y-94344418D01*
X78399936Y-94344420D01*
X78390284Y-94361976D01*
X78379610Y-94378226D01*
X78367329Y-94394061D01*
X78367324Y-94394068D01*
X78348815Y-94436838D01*
X78346245Y-94442084D01*
X78323803Y-94482906D01*
X78318822Y-94502307D01*
X78312521Y-94520710D01*
X78304562Y-94539102D01*
X78304561Y-94539105D01*
X78297271Y-94585127D01*
X78296087Y-94590846D01*
X78284501Y-94635972D01*
X78284500Y-94635982D01*
X78284500Y-94656016D01*
X78282973Y-94675413D01*
X78279840Y-94695196D01*
X70000500Y-94695196D01*
X70000500Y-79000000D01*
X88000000Y-79000000D01*
X88000000Y-79547844D01*
X88006401Y-79607372D01*
X88006403Y-79607379D01*
X88056645Y-79742086D01*
X88056649Y-79742093D01*
X88142809Y-79857187D01*
X88142812Y-79857190D01*
X88257906Y-79943350D01*
X88257913Y-79943354D01*
X88392620Y-79993596D01*
X88392627Y-79993598D01*
X88452155Y-79999999D01*
X88452172Y-80000000D01*
X89000000Y-80000000D01*
X89000000Y-79000000D01*
X88000000Y-79000000D01*
X70000500Y-79000000D01*
X70000500Y-78779302D01*
X88896372Y-78779302D01*
X88925047Y-78892538D01*
X88988936Y-78990327D01*
X89081115Y-79062072D01*
X89191595Y-79100000D01*
X89279005Y-79100000D01*
X89365216Y-79085614D01*
X89467947Y-79030019D01*
X89495581Y-79000000D01*
X89500000Y-79000000D01*
X89500000Y-80000000D01*
X90047828Y-80000000D01*
X90047844Y-79999999D01*
X90107372Y-79993598D01*
X90107379Y-79993596D01*
X90242086Y-79943354D01*
X90242093Y-79943350D01*
X90357187Y-79857190D01*
X90357190Y-79857187D01*
X90443350Y-79742093D01*
X90443354Y-79742086D01*
X90493596Y-79607379D01*
X90493598Y-79607372D01*
X90499999Y-79547844D01*
X90500000Y-79547827D01*
X90500000Y-79000000D01*
X89500000Y-79000000D01*
X89495581Y-79000000D01*
X89547060Y-78944079D01*
X89593982Y-78837108D01*
X89603628Y-78720698D01*
X89574953Y-78607462D01*
X89511064Y-78509673D01*
X89418885Y-78437928D01*
X89308405Y-78400000D01*
X89220995Y-78400000D01*
X89134784Y-78414386D01*
X89032053Y-78469981D01*
X88952940Y-78555921D01*
X88906018Y-78662892D01*
X88896372Y-78779302D01*
X70000500Y-78779302D01*
X70000500Y-78500000D01*
X88000000Y-78500000D01*
X89000000Y-78500000D01*
X89000000Y-77500000D01*
X89500000Y-77500000D01*
X89500000Y-78500000D01*
X90500000Y-78500000D01*
X90500000Y-77952172D01*
X90499999Y-77952155D01*
X90493598Y-77892627D01*
X90493596Y-77892620D01*
X90443354Y-77757913D01*
X90443350Y-77757906D01*
X90357190Y-77642812D01*
X90357187Y-77642809D01*
X90242093Y-77556649D01*
X90242086Y-77556645D01*
X90107379Y-77506403D01*
X90107372Y-77506401D01*
X90047844Y-77500000D01*
X89500000Y-77500000D01*
X89000000Y-77500000D01*
X88452155Y-77500000D01*
X88392627Y-77506401D01*
X88392620Y-77506403D01*
X88257913Y-77556645D01*
X88257906Y-77556649D01*
X88142812Y-77642809D01*
X88142809Y-77642812D01*
X88056649Y-77757906D01*
X88056645Y-77757913D01*
X88006403Y-77892620D01*
X88006401Y-77892627D01*
X88000000Y-77952155D01*
X88000000Y-78500000D01*
X70000500Y-78500000D01*
X70000500Y-78001065D01*
X70000536Y-77998949D01*
X70004168Y-77892620D01*
X70011496Y-77678124D01*
X70011518Y-77678124D01*
X70011502Y-77677943D01*
X70019608Y-77450968D01*
X70019891Y-77446874D01*
X70037460Y-77275973D01*
X70037978Y-77272130D01*
X70231056Y-76113654D01*
X70231961Y-76109234D01*
X70244265Y-76058745D01*
X70288978Y-75883568D01*
X70290234Y-75879294D01*
X70497218Y-75258345D01*
X70503933Y-75242132D01*
X71248275Y-73753448D01*
X71252143Y-73746785D01*
X71255963Y-73741055D01*
X71690751Y-73088870D01*
X71692876Y-73085884D01*
X71701788Y-73074131D01*
X71702837Y-73072789D01*
X71807135Y-72943363D01*
X71811557Y-72938441D01*
X72743773Y-72006226D01*
X72757040Y-71994719D01*
X73741055Y-71256708D01*
X73759996Y-71245001D01*
X74747722Y-70751138D01*
X74752363Y-70749054D01*
X75932259Y-70277095D01*
X75939947Y-70274588D01*
X76058845Y-70244241D01*
X76068863Y-70241799D01*
X76075811Y-70240523D01*
X77992174Y-70000978D01*
X77999687Y-70000510D01*
X78000000Y-70000500D01*
X78000500Y-70000500D01*
X121998933Y-70000500D01*
X122001050Y-70000536D01*
G37*
%TD.AperFunction*%
%TD*%
M02*
