%TF.GenerationSoftware,KiCad,Pcbnew,7.0.5*%
%TF.CreationDate,2023-07-06T17:02:58+08:00*%
%TF.ProjectId,GameRockerShaft,47616d65-526f-4636-9b65-725368616674,rev?*%
%TF.SameCoordinates,Original*%
%TF.FileFunction,Drillmap*%
%TF.FilePolarity,Positive*%
%FSLAX45Y45*%
G04 Gerber Fmt 4.5, Leading zero omitted, Abs format (unit mm)*
G04 Created by KiCad (PCBNEW 7.0.5) date 2023-07-06 17:02:58*
%MOMM*%
%LPD*%
G01*
G04 APERTURE LIST*
%ADD10C,0.100000*%
%ADD11C,0.200000*%
%ADD12C,0.040000*%
%ADD13C,0.070000*%
%ADD14C,0.120000*%
G04 APERTURE END LIST*
D10*
X7000000Y-7800000D02*
X7000000Y-10700000D01*
X13000000Y-7800000D02*
X13000000Y-10700000D01*
X13000000Y-7800000D02*
G75*
G03*
X12200000Y-7000000I-800000J0D01*
G01*
X7800000Y-7000000D02*
X12200000Y-7000000D01*
X12200000Y-11500000D02*
G75*
G03*
X13000000Y-10700000I0J800000D01*
G01*
X7000000Y-10700000D02*
G75*
G03*
X7800000Y-11500000I800000J0D01*
G01*
X7800000Y-11500000D02*
X12200000Y-11500000D01*
X7800000Y-7000000D02*
G75*
G03*
X7000000Y-7800000I0J-800000D01*
G01*
D11*
D12*
X8242500Y-8317500D02*
X8282500Y-8357500D01*
X8282500Y-8317500D02*
X8242500Y-8357500D01*
X9171750Y-8580000D02*
X9211750Y-8620000D01*
X9211750Y-8580000D02*
X9171750Y-8620000D01*
X9655000Y-8955000D02*
X9695000Y-8995000D01*
X9695000Y-8955000D02*
X9655000Y-8995000D01*
X11180000Y-8180000D02*
X11220000Y-8220000D01*
X11220000Y-8180000D02*
X11180000Y-8220000D01*
D13*
X8960000Y-7875000D02*
G75*
G03*
X8960000Y-7875000I-35000J0D01*
G01*
D10*
X8008500Y-8542000D02*
X8008500Y-8642000D01*
X7958500Y-8592000D02*
X8058500Y-8592000D01*
X8008500Y-8796000D02*
X8008500Y-8896000D01*
X7958500Y-8846000D02*
X8058500Y-8846000D01*
X8008500Y-9050000D02*
X8008500Y-9150000D01*
X7958500Y-9100000D02*
X8058500Y-9100000D01*
X8008500Y-9304000D02*
X8008500Y-9404000D01*
X7958500Y-9354000D02*
X8058500Y-9354000D01*
X8008500Y-9558000D02*
X8008500Y-9658000D01*
X7958500Y-9608000D02*
X8058500Y-9608000D01*
X8008500Y-9812000D02*
X8008500Y-9912000D01*
X7958500Y-9862000D02*
X8058500Y-9862000D01*
X8262500Y-8542000D02*
X8262500Y-8642000D01*
X8212500Y-8592000D02*
X8312500Y-8592000D01*
X8262500Y-8796000D02*
X8262500Y-8896000D01*
X8212500Y-8846000D02*
X8312500Y-8846000D01*
X8262500Y-9050000D02*
X8262500Y-9150000D01*
X8212500Y-9100000D02*
X8312500Y-9100000D01*
X8262500Y-9304000D02*
X8262500Y-9404000D01*
X8212500Y-9354000D02*
X8312500Y-9354000D01*
X8262500Y-9558000D02*
X8262500Y-9658000D01*
X8212500Y-9608000D02*
X8312500Y-9608000D01*
X8262500Y-9812000D02*
X8262500Y-9912000D01*
X8212500Y-9862000D02*
X8312500Y-9862000D01*
D14*
X11492427Y-8317427D02*
X11492427Y-8232573D01*
X11407573Y-8232573D01*
X11407573Y-8317427D01*
X11492427Y-8317427D01*
X11692427Y-8317427D02*
X11692427Y-8232573D01*
X11607573Y-8232573D01*
X11607573Y-8317427D01*
X11692427Y-8317427D01*
X11892427Y-8317427D02*
X11892427Y-8232573D01*
X11807573Y-8232573D01*
X11807573Y-8317427D01*
X11892427Y-8317427D01*
X12669927Y-9082427D02*
X12669927Y-8997573D01*
X12585073Y-8997573D01*
X12585073Y-9082427D01*
X12669927Y-9082427D01*
X12669927Y-9282427D02*
X12669927Y-9197573D01*
X12585073Y-9197573D01*
X12585073Y-9282427D01*
X12669927Y-9282427D01*
X12669927Y-9482427D02*
X12669927Y-9397573D01*
X12585073Y-9397573D01*
X12585073Y-9482427D01*
X12669927Y-9482427D01*
D11*
X7255777Y-11816484D02*
X7255777Y-11616484D01*
X7255777Y-11616484D02*
X7303396Y-11616484D01*
X7303396Y-11616484D02*
X7331967Y-11626008D01*
X7331967Y-11626008D02*
X7351015Y-11645055D01*
X7351015Y-11645055D02*
X7360539Y-11664103D01*
X7360539Y-11664103D02*
X7370062Y-11702198D01*
X7370062Y-11702198D02*
X7370062Y-11730769D01*
X7370062Y-11730769D02*
X7360539Y-11768865D01*
X7360539Y-11768865D02*
X7351015Y-11787912D01*
X7351015Y-11787912D02*
X7331967Y-11806960D01*
X7331967Y-11806960D02*
X7303396Y-11816484D01*
X7303396Y-11816484D02*
X7255777Y-11816484D01*
X7455777Y-11816484D02*
X7455777Y-11683150D01*
X7455777Y-11721246D02*
X7465301Y-11702198D01*
X7465301Y-11702198D02*
X7474824Y-11692674D01*
X7474824Y-11692674D02*
X7493872Y-11683150D01*
X7493872Y-11683150D02*
X7512920Y-11683150D01*
X7579586Y-11816484D02*
X7579586Y-11683150D01*
X7579586Y-11616484D02*
X7570062Y-11626008D01*
X7570062Y-11626008D02*
X7579586Y-11635531D01*
X7579586Y-11635531D02*
X7589110Y-11626008D01*
X7589110Y-11626008D02*
X7579586Y-11616484D01*
X7579586Y-11616484D02*
X7579586Y-11635531D01*
X7703396Y-11816484D02*
X7684348Y-11806960D01*
X7684348Y-11806960D02*
X7674824Y-11787912D01*
X7674824Y-11787912D02*
X7674824Y-11616484D01*
X7808158Y-11816484D02*
X7789110Y-11806960D01*
X7789110Y-11806960D02*
X7779586Y-11787912D01*
X7779586Y-11787912D02*
X7779586Y-11616484D01*
X8036729Y-11816484D02*
X8036729Y-11616484D01*
X8036729Y-11616484D02*
X8103396Y-11759341D01*
X8103396Y-11759341D02*
X8170062Y-11616484D01*
X8170062Y-11616484D02*
X8170062Y-11816484D01*
X8351015Y-11816484D02*
X8351015Y-11711722D01*
X8351015Y-11711722D02*
X8341491Y-11692674D01*
X8341491Y-11692674D02*
X8322443Y-11683150D01*
X8322443Y-11683150D02*
X8284348Y-11683150D01*
X8284348Y-11683150D02*
X8265301Y-11692674D01*
X8351015Y-11806960D02*
X8331967Y-11816484D01*
X8331967Y-11816484D02*
X8284348Y-11816484D01*
X8284348Y-11816484D02*
X8265301Y-11806960D01*
X8265301Y-11806960D02*
X8255777Y-11787912D01*
X8255777Y-11787912D02*
X8255777Y-11768865D01*
X8255777Y-11768865D02*
X8265301Y-11749817D01*
X8265301Y-11749817D02*
X8284348Y-11740293D01*
X8284348Y-11740293D02*
X8331967Y-11740293D01*
X8331967Y-11740293D02*
X8351015Y-11730769D01*
X8446253Y-11683150D02*
X8446253Y-11883150D01*
X8446253Y-11692674D02*
X8465301Y-11683150D01*
X8465301Y-11683150D02*
X8503396Y-11683150D01*
X8503396Y-11683150D02*
X8522444Y-11692674D01*
X8522444Y-11692674D02*
X8531967Y-11702198D01*
X8531967Y-11702198D02*
X8541491Y-11721246D01*
X8541491Y-11721246D02*
X8541491Y-11778388D01*
X8541491Y-11778388D02*
X8531967Y-11797436D01*
X8531967Y-11797436D02*
X8522444Y-11806960D01*
X8522444Y-11806960D02*
X8503396Y-11816484D01*
X8503396Y-11816484D02*
X8465301Y-11816484D01*
X8465301Y-11816484D02*
X8446253Y-11806960D01*
X8627205Y-11797436D02*
X8636729Y-11806960D01*
X8636729Y-11806960D02*
X8627205Y-11816484D01*
X8627205Y-11816484D02*
X8617682Y-11806960D01*
X8617682Y-11806960D02*
X8627205Y-11797436D01*
X8627205Y-11797436D02*
X8627205Y-11816484D01*
X8627205Y-11692674D02*
X8636729Y-11702198D01*
X8636729Y-11702198D02*
X8627205Y-11711722D01*
X8627205Y-11711722D02*
X8617682Y-11702198D01*
X8617682Y-11702198D02*
X8627205Y-11692674D01*
X8627205Y-11692674D02*
X8627205Y-11711722D01*
D12*
X6955000Y-12125000D02*
X6995000Y-12165000D01*
X6995000Y-12125000D02*
X6955000Y-12165000D01*
D11*
X7293872Y-12036484D02*
X7312920Y-12036484D01*
X7312920Y-12036484D02*
X7331967Y-12046008D01*
X7331967Y-12046008D02*
X7341491Y-12055531D01*
X7341491Y-12055531D02*
X7351015Y-12074579D01*
X7351015Y-12074579D02*
X7360539Y-12112674D01*
X7360539Y-12112674D02*
X7360539Y-12160293D01*
X7360539Y-12160293D02*
X7351015Y-12198388D01*
X7351015Y-12198388D02*
X7341491Y-12217436D01*
X7341491Y-12217436D02*
X7331967Y-12226960D01*
X7331967Y-12226960D02*
X7312920Y-12236484D01*
X7312920Y-12236484D02*
X7293872Y-12236484D01*
X7293872Y-12236484D02*
X7274824Y-12226960D01*
X7274824Y-12226960D02*
X7265301Y-12217436D01*
X7265301Y-12217436D02*
X7255777Y-12198388D01*
X7255777Y-12198388D02*
X7246253Y-12160293D01*
X7246253Y-12160293D02*
X7246253Y-12112674D01*
X7246253Y-12112674D02*
X7255777Y-12074579D01*
X7255777Y-12074579D02*
X7265301Y-12055531D01*
X7265301Y-12055531D02*
X7274824Y-12046008D01*
X7274824Y-12046008D02*
X7293872Y-12036484D01*
X7446253Y-12217436D02*
X7455777Y-12226960D01*
X7455777Y-12226960D02*
X7446253Y-12236484D01*
X7446253Y-12236484D02*
X7436729Y-12226960D01*
X7436729Y-12226960D02*
X7446253Y-12217436D01*
X7446253Y-12217436D02*
X7446253Y-12236484D01*
X7627205Y-12103150D02*
X7627205Y-12236484D01*
X7579586Y-12026960D02*
X7531967Y-12169817D01*
X7531967Y-12169817D02*
X7655777Y-12169817D01*
X7770062Y-12036484D02*
X7789110Y-12036484D01*
X7789110Y-12036484D02*
X7808158Y-12046008D01*
X7808158Y-12046008D02*
X7817682Y-12055531D01*
X7817682Y-12055531D02*
X7827205Y-12074579D01*
X7827205Y-12074579D02*
X7836729Y-12112674D01*
X7836729Y-12112674D02*
X7836729Y-12160293D01*
X7836729Y-12160293D02*
X7827205Y-12198388D01*
X7827205Y-12198388D02*
X7817682Y-12217436D01*
X7817682Y-12217436D02*
X7808158Y-12226960D01*
X7808158Y-12226960D02*
X7789110Y-12236484D01*
X7789110Y-12236484D02*
X7770062Y-12236484D01*
X7770062Y-12236484D02*
X7751015Y-12226960D01*
X7751015Y-12226960D02*
X7741491Y-12217436D01*
X7741491Y-12217436D02*
X7731967Y-12198388D01*
X7731967Y-12198388D02*
X7722443Y-12160293D01*
X7722443Y-12160293D02*
X7722443Y-12112674D01*
X7722443Y-12112674D02*
X7731967Y-12074579D01*
X7731967Y-12074579D02*
X7741491Y-12055531D01*
X7741491Y-12055531D02*
X7751015Y-12046008D01*
X7751015Y-12046008D02*
X7770062Y-12036484D01*
X7960539Y-12036484D02*
X7979586Y-12036484D01*
X7979586Y-12036484D02*
X7998634Y-12046008D01*
X7998634Y-12046008D02*
X8008158Y-12055531D01*
X8008158Y-12055531D02*
X8017682Y-12074579D01*
X8017682Y-12074579D02*
X8027205Y-12112674D01*
X8027205Y-12112674D02*
X8027205Y-12160293D01*
X8027205Y-12160293D02*
X8017682Y-12198388D01*
X8017682Y-12198388D02*
X8008158Y-12217436D01*
X8008158Y-12217436D02*
X7998634Y-12226960D01*
X7998634Y-12226960D02*
X7979586Y-12236484D01*
X7979586Y-12236484D02*
X7960539Y-12236484D01*
X7960539Y-12236484D02*
X7941491Y-12226960D01*
X7941491Y-12226960D02*
X7931967Y-12217436D01*
X7931967Y-12217436D02*
X7922443Y-12198388D01*
X7922443Y-12198388D02*
X7912920Y-12160293D01*
X7912920Y-12160293D02*
X7912920Y-12112674D01*
X7912920Y-12112674D02*
X7922443Y-12074579D01*
X7922443Y-12074579D02*
X7931967Y-12055531D01*
X7931967Y-12055531D02*
X7941491Y-12046008D01*
X7941491Y-12046008D02*
X7960539Y-12036484D01*
X8112920Y-12236484D02*
X8112920Y-12103150D01*
X8112920Y-12122198D02*
X8122443Y-12112674D01*
X8122443Y-12112674D02*
X8141491Y-12103150D01*
X8141491Y-12103150D02*
X8170063Y-12103150D01*
X8170063Y-12103150D02*
X8189110Y-12112674D01*
X8189110Y-12112674D02*
X8198634Y-12131722D01*
X8198634Y-12131722D02*
X8198634Y-12236484D01*
X8198634Y-12131722D02*
X8208158Y-12112674D01*
X8208158Y-12112674D02*
X8227205Y-12103150D01*
X8227205Y-12103150D02*
X8255777Y-12103150D01*
X8255777Y-12103150D02*
X8274824Y-12112674D01*
X8274824Y-12112674D02*
X8284348Y-12131722D01*
X8284348Y-12131722D02*
X8284348Y-12236484D01*
X8379586Y-12236484D02*
X8379586Y-12103150D01*
X8379586Y-12122198D02*
X8389110Y-12112674D01*
X8389110Y-12112674D02*
X8408158Y-12103150D01*
X8408158Y-12103150D02*
X8436729Y-12103150D01*
X8436729Y-12103150D02*
X8455777Y-12112674D01*
X8455777Y-12112674D02*
X8465301Y-12131722D01*
X8465301Y-12131722D02*
X8465301Y-12236484D01*
X8465301Y-12131722D02*
X8474825Y-12112674D01*
X8474825Y-12112674D02*
X8493872Y-12103150D01*
X8493872Y-12103150D02*
X8522444Y-12103150D01*
X8522444Y-12103150D02*
X8541491Y-12112674D01*
X8541491Y-12112674D02*
X8551015Y-12131722D01*
X8551015Y-12131722D02*
X8551015Y-12236484D01*
X8941491Y-12026960D02*
X8770063Y-12284103D01*
X9198634Y-12036484D02*
X9217682Y-12036484D01*
X9217682Y-12036484D02*
X9236729Y-12046008D01*
X9236729Y-12046008D02*
X9246253Y-12055531D01*
X9246253Y-12055531D02*
X9255777Y-12074579D01*
X9255777Y-12074579D02*
X9265301Y-12112674D01*
X9265301Y-12112674D02*
X9265301Y-12160293D01*
X9265301Y-12160293D02*
X9255777Y-12198388D01*
X9255777Y-12198388D02*
X9246253Y-12217436D01*
X9246253Y-12217436D02*
X9236729Y-12226960D01*
X9236729Y-12226960D02*
X9217682Y-12236484D01*
X9217682Y-12236484D02*
X9198634Y-12236484D01*
X9198634Y-12236484D02*
X9179587Y-12226960D01*
X9179587Y-12226960D02*
X9170063Y-12217436D01*
X9170063Y-12217436D02*
X9160539Y-12198388D01*
X9160539Y-12198388D02*
X9151015Y-12160293D01*
X9151015Y-12160293D02*
X9151015Y-12112674D01*
X9151015Y-12112674D02*
X9160539Y-12074579D01*
X9160539Y-12074579D02*
X9170063Y-12055531D01*
X9170063Y-12055531D02*
X9179587Y-12046008D01*
X9179587Y-12046008D02*
X9198634Y-12036484D01*
X9351015Y-12217436D02*
X9360539Y-12226960D01*
X9360539Y-12226960D02*
X9351015Y-12236484D01*
X9351015Y-12236484D02*
X9341491Y-12226960D01*
X9341491Y-12226960D02*
X9351015Y-12217436D01*
X9351015Y-12217436D02*
X9351015Y-12236484D01*
X9484348Y-12036484D02*
X9503396Y-12036484D01*
X9503396Y-12036484D02*
X9522444Y-12046008D01*
X9522444Y-12046008D02*
X9531968Y-12055531D01*
X9531968Y-12055531D02*
X9541491Y-12074579D01*
X9541491Y-12074579D02*
X9551015Y-12112674D01*
X9551015Y-12112674D02*
X9551015Y-12160293D01*
X9551015Y-12160293D02*
X9541491Y-12198388D01*
X9541491Y-12198388D02*
X9531968Y-12217436D01*
X9531968Y-12217436D02*
X9522444Y-12226960D01*
X9522444Y-12226960D02*
X9503396Y-12236484D01*
X9503396Y-12236484D02*
X9484348Y-12236484D01*
X9484348Y-12236484D02*
X9465301Y-12226960D01*
X9465301Y-12226960D02*
X9455777Y-12217436D01*
X9455777Y-12217436D02*
X9446253Y-12198388D01*
X9446253Y-12198388D02*
X9436729Y-12160293D01*
X9436729Y-12160293D02*
X9436729Y-12112674D01*
X9436729Y-12112674D02*
X9446253Y-12074579D01*
X9446253Y-12074579D02*
X9455777Y-12055531D01*
X9455777Y-12055531D02*
X9465301Y-12046008D01*
X9465301Y-12046008D02*
X9484348Y-12036484D01*
X9741491Y-12236484D02*
X9627206Y-12236484D01*
X9684348Y-12236484D02*
X9684348Y-12036484D01*
X9684348Y-12036484D02*
X9665301Y-12065055D01*
X9665301Y-12065055D02*
X9646253Y-12084103D01*
X9646253Y-12084103D02*
X9627206Y-12093627D01*
X9922444Y-12036484D02*
X9827206Y-12036484D01*
X9827206Y-12036484D02*
X9817682Y-12131722D01*
X9817682Y-12131722D02*
X9827206Y-12122198D01*
X9827206Y-12122198D02*
X9846253Y-12112674D01*
X9846253Y-12112674D02*
X9893872Y-12112674D01*
X9893872Y-12112674D02*
X9912920Y-12122198D01*
X9912920Y-12122198D02*
X9922444Y-12131722D01*
X9922444Y-12131722D02*
X9931968Y-12150769D01*
X9931968Y-12150769D02*
X9931968Y-12198388D01*
X9931968Y-12198388D02*
X9922444Y-12217436D01*
X9922444Y-12217436D02*
X9912920Y-12226960D01*
X9912920Y-12226960D02*
X9893872Y-12236484D01*
X9893872Y-12236484D02*
X9846253Y-12236484D01*
X9846253Y-12236484D02*
X9827206Y-12226960D01*
X9827206Y-12226960D02*
X9817682Y-12217436D01*
X9998634Y-12036484D02*
X10131968Y-12036484D01*
X10131968Y-12036484D02*
X10046253Y-12236484D01*
X10198634Y-12036484D02*
X10198634Y-12074579D01*
X10274825Y-12036484D02*
X10274825Y-12074579D01*
X10570063Y-12312674D02*
X10560539Y-12303150D01*
X10560539Y-12303150D02*
X10541491Y-12274579D01*
X10541491Y-12274579D02*
X10531968Y-12255531D01*
X10531968Y-12255531D02*
X10522444Y-12226960D01*
X10522444Y-12226960D02*
X10512920Y-12179341D01*
X10512920Y-12179341D02*
X10512920Y-12141246D01*
X10512920Y-12141246D02*
X10522444Y-12093627D01*
X10522444Y-12093627D02*
X10531968Y-12065055D01*
X10531968Y-12065055D02*
X10541491Y-12046008D01*
X10541491Y-12046008D02*
X10560539Y-12017436D01*
X10560539Y-12017436D02*
X10570063Y-12007912D01*
X10731968Y-12103150D02*
X10731968Y-12236484D01*
X10684349Y-12026960D02*
X10636730Y-12169817D01*
X10636730Y-12169817D02*
X10760539Y-12169817D01*
X10989111Y-12236484D02*
X10989111Y-12036484D01*
X11074825Y-12236484D02*
X11074825Y-12131722D01*
X11074825Y-12131722D02*
X11065301Y-12112674D01*
X11065301Y-12112674D02*
X11046253Y-12103150D01*
X11046253Y-12103150D02*
X11017682Y-12103150D01*
X11017682Y-12103150D02*
X10998634Y-12112674D01*
X10998634Y-12112674D02*
X10989111Y-12122198D01*
X11198634Y-12236484D02*
X11179587Y-12226960D01*
X11179587Y-12226960D02*
X11170063Y-12217436D01*
X11170063Y-12217436D02*
X11160539Y-12198388D01*
X11160539Y-12198388D02*
X11160539Y-12141246D01*
X11160539Y-12141246D02*
X11170063Y-12122198D01*
X11170063Y-12122198D02*
X11179587Y-12112674D01*
X11179587Y-12112674D02*
X11198634Y-12103150D01*
X11198634Y-12103150D02*
X11227206Y-12103150D01*
X11227206Y-12103150D02*
X11246253Y-12112674D01*
X11246253Y-12112674D02*
X11255777Y-12122198D01*
X11255777Y-12122198D02*
X11265301Y-12141246D01*
X11265301Y-12141246D02*
X11265301Y-12198388D01*
X11265301Y-12198388D02*
X11255777Y-12217436D01*
X11255777Y-12217436D02*
X11246253Y-12226960D01*
X11246253Y-12226960D02*
X11227206Y-12236484D01*
X11227206Y-12236484D02*
X11198634Y-12236484D01*
X11379587Y-12236484D02*
X11360539Y-12226960D01*
X11360539Y-12226960D02*
X11351015Y-12207912D01*
X11351015Y-12207912D02*
X11351015Y-12036484D01*
X11531968Y-12226960D02*
X11512920Y-12236484D01*
X11512920Y-12236484D02*
X11474825Y-12236484D01*
X11474825Y-12236484D02*
X11455777Y-12226960D01*
X11455777Y-12226960D02*
X11446253Y-12207912D01*
X11446253Y-12207912D02*
X11446253Y-12131722D01*
X11446253Y-12131722D02*
X11455777Y-12112674D01*
X11455777Y-12112674D02*
X11474825Y-12103150D01*
X11474825Y-12103150D02*
X11512920Y-12103150D01*
X11512920Y-12103150D02*
X11531968Y-12112674D01*
X11531968Y-12112674D02*
X11541491Y-12131722D01*
X11541491Y-12131722D02*
X11541491Y-12150769D01*
X11541491Y-12150769D02*
X11446253Y-12169817D01*
X11617682Y-12226960D02*
X11636730Y-12236484D01*
X11636730Y-12236484D02*
X11674825Y-12236484D01*
X11674825Y-12236484D02*
X11693872Y-12226960D01*
X11693872Y-12226960D02*
X11703396Y-12207912D01*
X11703396Y-12207912D02*
X11703396Y-12198388D01*
X11703396Y-12198388D02*
X11693872Y-12179341D01*
X11693872Y-12179341D02*
X11674825Y-12169817D01*
X11674825Y-12169817D02*
X11646253Y-12169817D01*
X11646253Y-12169817D02*
X11627206Y-12160293D01*
X11627206Y-12160293D02*
X11617682Y-12141246D01*
X11617682Y-12141246D02*
X11617682Y-12131722D01*
X11617682Y-12131722D02*
X11627206Y-12112674D01*
X11627206Y-12112674D02*
X11646253Y-12103150D01*
X11646253Y-12103150D02*
X11674825Y-12103150D01*
X11674825Y-12103150D02*
X11693872Y-12112674D01*
X11770063Y-12312674D02*
X11779587Y-12303150D01*
X11779587Y-12303150D02*
X11798634Y-12274579D01*
X11798634Y-12274579D02*
X11808158Y-12255531D01*
X11808158Y-12255531D02*
X11817682Y-12226960D01*
X11817682Y-12226960D02*
X11827206Y-12179341D01*
X11827206Y-12179341D02*
X11827206Y-12141246D01*
X11827206Y-12141246D02*
X11817682Y-12093627D01*
X11817682Y-12093627D02*
X11808158Y-12065055D01*
X11808158Y-12065055D02*
X11798634Y-12046008D01*
X11798634Y-12046008D02*
X11779587Y-12017436D01*
X11779587Y-12017436D02*
X11770063Y-12007912D01*
D13*
X6995000Y-12409000D02*
G75*
G03*
X6995000Y-12409000I-35000J0D01*
G01*
D11*
X7293872Y-12300484D02*
X7312920Y-12300484D01*
X7312920Y-12300484D02*
X7331967Y-12310008D01*
X7331967Y-12310008D02*
X7341491Y-12319531D01*
X7341491Y-12319531D02*
X7351015Y-12338579D01*
X7351015Y-12338579D02*
X7360539Y-12376674D01*
X7360539Y-12376674D02*
X7360539Y-12424293D01*
X7360539Y-12424293D02*
X7351015Y-12462388D01*
X7351015Y-12462388D02*
X7341491Y-12481436D01*
X7341491Y-12481436D02*
X7331967Y-12490960D01*
X7331967Y-12490960D02*
X7312920Y-12500484D01*
X7312920Y-12500484D02*
X7293872Y-12500484D01*
X7293872Y-12500484D02*
X7274824Y-12490960D01*
X7274824Y-12490960D02*
X7265301Y-12481436D01*
X7265301Y-12481436D02*
X7255777Y-12462388D01*
X7255777Y-12462388D02*
X7246253Y-12424293D01*
X7246253Y-12424293D02*
X7246253Y-12376674D01*
X7246253Y-12376674D02*
X7255777Y-12338579D01*
X7255777Y-12338579D02*
X7265301Y-12319531D01*
X7265301Y-12319531D02*
X7274824Y-12310008D01*
X7274824Y-12310008D02*
X7293872Y-12300484D01*
X7446253Y-12481436D02*
X7455777Y-12490960D01*
X7455777Y-12490960D02*
X7446253Y-12500484D01*
X7446253Y-12500484D02*
X7436729Y-12490960D01*
X7436729Y-12490960D02*
X7446253Y-12481436D01*
X7446253Y-12481436D02*
X7446253Y-12500484D01*
X7522443Y-12300484D02*
X7655777Y-12300484D01*
X7655777Y-12300484D02*
X7570062Y-12500484D01*
X7770062Y-12300484D02*
X7789110Y-12300484D01*
X7789110Y-12300484D02*
X7808158Y-12310008D01*
X7808158Y-12310008D02*
X7817682Y-12319531D01*
X7817682Y-12319531D02*
X7827205Y-12338579D01*
X7827205Y-12338579D02*
X7836729Y-12376674D01*
X7836729Y-12376674D02*
X7836729Y-12424293D01*
X7836729Y-12424293D02*
X7827205Y-12462388D01*
X7827205Y-12462388D02*
X7817682Y-12481436D01*
X7817682Y-12481436D02*
X7808158Y-12490960D01*
X7808158Y-12490960D02*
X7789110Y-12500484D01*
X7789110Y-12500484D02*
X7770062Y-12500484D01*
X7770062Y-12500484D02*
X7751015Y-12490960D01*
X7751015Y-12490960D02*
X7741491Y-12481436D01*
X7741491Y-12481436D02*
X7731967Y-12462388D01*
X7731967Y-12462388D02*
X7722443Y-12424293D01*
X7722443Y-12424293D02*
X7722443Y-12376674D01*
X7722443Y-12376674D02*
X7731967Y-12338579D01*
X7731967Y-12338579D02*
X7741491Y-12319531D01*
X7741491Y-12319531D02*
X7751015Y-12310008D01*
X7751015Y-12310008D02*
X7770062Y-12300484D01*
X7960539Y-12300484D02*
X7979586Y-12300484D01*
X7979586Y-12300484D02*
X7998634Y-12310008D01*
X7998634Y-12310008D02*
X8008158Y-12319531D01*
X8008158Y-12319531D02*
X8017682Y-12338579D01*
X8017682Y-12338579D02*
X8027205Y-12376674D01*
X8027205Y-12376674D02*
X8027205Y-12424293D01*
X8027205Y-12424293D02*
X8017682Y-12462388D01*
X8017682Y-12462388D02*
X8008158Y-12481436D01*
X8008158Y-12481436D02*
X7998634Y-12490960D01*
X7998634Y-12490960D02*
X7979586Y-12500484D01*
X7979586Y-12500484D02*
X7960539Y-12500484D01*
X7960539Y-12500484D02*
X7941491Y-12490960D01*
X7941491Y-12490960D02*
X7931967Y-12481436D01*
X7931967Y-12481436D02*
X7922443Y-12462388D01*
X7922443Y-12462388D02*
X7912920Y-12424293D01*
X7912920Y-12424293D02*
X7912920Y-12376674D01*
X7912920Y-12376674D02*
X7922443Y-12338579D01*
X7922443Y-12338579D02*
X7931967Y-12319531D01*
X7931967Y-12319531D02*
X7941491Y-12310008D01*
X7941491Y-12310008D02*
X7960539Y-12300484D01*
X8112920Y-12500484D02*
X8112920Y-12367150D01*
X8112920Y-12386198D02*
X8122443Y-12376674D01*
X8122443Y-12376674D02*
X8141491Y-12367150D01*
X8141491Y-12367150D02*
X8170063Y-12367150D01*
X8170063Y-12367150D02*
X8189110Y-12376674D01*
X8189110Y-12376674D02*
X8198634Y-12395722D01*
X8198634Y-12395722D02*
X8198634Y-12500484D01*
X8198634Y-12395722D02*
X8208158Y-12376674D01*
X8208158Y-12376674D02*
X8227205Y-12367150D01*
X8227205Y-12367150D02*
X8255777Y-12367150D01*
X8255777Y-12367150D02*
X8274824Y-12376674D01*
X8274824Y-12376674D02*
X8284348Y-12395722D01*
X8284348Y-12395722D02*
X8284348Y-12500484D01*
X8379586Y-12500484D02*
X8379586Y-12367150D01*
X8379586Y-12386198D02*
X8389110Y-12376674D01*
X8389110Y-12376674D02*
X8408158Y-12367150D01*
X8408158Y-12367150D02*
X8436729Y-12367150D01*
X8436729Y-12367150D02*
X8455777Y-12376674D01*
X8455777Y-12376674D02*
X8465301Y-12395722D01*
X8465301Y-12395722D02*
X8465301Y-12500484D01*
X8465301Y-12395722D02*
X8474825Y-12376674D01*
X8474825Y-12376674D02*
X8493872Y-12367150D01*
X8493872Y-12367150D02*
X8522444Y-12367150D01*
X8522444Y-12367150D02*
X8541491Y-12376674D01*
X8541491Y-12376674D02*
X8551015Y-12395722D01*
X8551015Y-12395722D02*
X8551015Y-12500484D01*
X8941491Y-12290960D02*
X8770063Y-12548103D01*
X9198634Y-12300484D02*
X9217682Y-12300484D01*
X9217682Y-12300484D02*
X9236729Y-12310008D01*
X9236729Y-12310008D02*
X9246253Y-12319531D01*
X9246253Y-12319531D02*
X9255777Y-12338579D01*
X9255777Y-12338579D02*
X9265301Y-12376674D01*
X9265301Y-12376674D02*
X9265301Y-12424293D01*
X9265301Y-12424293D02*
X9255777Y-12462388D01*
X9255777Y-12462388D02*
X9246253Y-12481436D01*
X9246253Y-12481436D02*
X9236729Y-12490960D01*
X9236729Y-12490960D02*
X9217682Y-12500484D01*
X9217682Y-12500484D02*
X9198634Y-12500484D01*
X9198634Y-12500484D02*
X9179587Y-12490960D01*
X9179587Y-12490960D02*
X9170063Y-12481436D01*
X9170063Y-12481436D02*
X9160539Y-12462388D01*
X9160539Y-12462388D02*
X9151015Y-12424293D01*
X9151015Y-12424293D02*
X9151015Y-12376674D01*
X9151015Y-12376674D02*
X9160539Y-12338579D01*
X9160539Y-12338579D02*
X9170063Y-12319531D01*
X9170063Y-12319531D02*
X9179587Y-12310008D01*
X9179587Y-12310008D02*
X9198634Y-12300484D01*
X9351015Y-12481436D02*
X9360539Y-12490960D01*
X9360539Y-12490960D02*
X9351015Y-12500484D01*
X9351015Y-12500484D02*
X9341491Y-12490960D01*
X9341491Y-12490960D02*
X9351015Y-12481436D01*
X9351015Y-12481436D02*
X9351015Y-12500484D01*
X9484348Y-12300484D02*
X9503396Y-12300484D01*
X9503396Y-12300484D02*
X9522444Y-12310008D01*
X9522444Y-12310008D02*
X9531968Y-12319531D01*
X9531968Y-12319531D02*
X9541491Y-12338579D01*
X9541491Y-12338579D02*
X9551015Y-12376674D01*
X9551015Y-12376674D02*
X9551015Y-12424293D01*
X9551015Y-12424293D02*
X9541491Y-12462388D01*
X9541491Y-12462388D02*
X9531968Y-12481436D01*
X9531968Y-12481436D02*
X9522444Y-12490960D01*
X9522444Y-12490960D02*
X9503396Y-12500484D01*
X9503396Y-12500484D02*
X9484348Y-12500484D01*
X9484348Y-12500484D02*
X9465301Y-12490960D01*
X9465301Y-12490960D02*
X9455777Y-12481436D01*
X9455777Y-12481436D02*
X9446253Y-12462388D01*
X9446253Y-12462388D02*
X9436729Y-12424293D01*
X9436729Y-12424293D02*
X9436729Y-12376674D01*
X9436729Y-12376674D02*
X9446253Y-12338579D01*
X9446253Y-12338579D02*
X9455777Y-12319531D01*
X9455777Y-12319531D02*
X9465301Y-12310008D01*
X9465301Y-12310008D02*
X9484348Y-12300484D01*
X9627206Y-12319531D02*
X9636729Y-12310008D01*
X9636729Y-12310008D02*
X9655777Y-12300484D01*
X9655777Y-12300484D02*
X9703396Y-12300484D01*
X9703396Y-12300484D02*
X9722444Y-12310008D01*
X9722444Y-12310008D02*
X9731968Y-12319531D01*
X9731968Y-12319531D02*
X9741491Y-12338579D01*
X9741491Y-12338579D02*
X9741491Y-12357627D01*
X9741491Y-12357627D02*
X9731968Y-12386198D01*
X9731968Y-12386198D02*
X9617682Y-12500484D01*
X9617682Y-12500484D02*
X9741491Y-12500484D01*
X9808158Y-12300484D02*
X9941491Y-12300484D01*
X9941491Y-12300484D02*
X9855777Y-12500484D01*
X10103396Y-12300484D02*
X10065301Y-12300484D01*
X10065301Y-12300484D02*
X10046253Y-12310008D01*
X10046253Y-12310008D02*
X10036729Y-12319531D01*
X10036729Y-12319531D02*
X10017682Y-12348103D01*
X10017682Y-12348103D02*
X10008158Y-12386198D01*
X10008158Y-12386198D02*
X10008158Y-12462388D01*
X10008158Y-12462388D02*
X10017682Y-12481436D01*
X10017682Y-12481436D02*
X10027206Y-12490960D01*
X10027206Y-12490960D02*
X10046253Y-12500484D01*
X10046253Y-12500484D02*
X10084349Y-12500484D01*
X10084349Y-12500484D02*
X10103396Y-12490960D01*
X10103396Y-12490960D02*
X10112920Y-12481436D01*
X10112920Y-12481436D02*
X10122444Y-12462388D01*
X10122444Y-12462388D02*
X10122444Y-12414769D01*
X10122444Y-12414769D02*
X10112920Y-12395722D01*
X10112920Y-12395722D02*
X10103396Y-12386198D01*
X10103396Y-12386198D02*
X10084349Y-12376674D01*
X10084349Y-12376674D02*
X10046253Y-12376674D01*
X10046253Y-12376674D02*
X10027206Y-12386198D01*
X10027206Y-12386198D02*
X10017682Y-12395722D01*
X10017682Y-12395722D02*
X10008158Y-12414769D01*
X10198634Y-12300484D02*
X10198634Y-12338579D01*
X10274825Y-12300484D02*
X10274825Y-12338579D01*
X10570063Y-12576674D02*
X10560539Y-12567150D01*
X10560539Y-12567150D02*
X10541491Y-12538579D01*
X10541491Y-12538579D02*
X10531968Y-12519531D01*
X10531968Y-12519531D02*
X10522444Y-12490960D01*
X10522444Y-12490960D02*
X10512920Y-12443341D01*
X10512920Y-12443341D02*
X10512920Y-12405246D01*
X10512920Y-12405246D02*
X10522444Y-12357627D01*
X10522444Y-12357627D02*
X10531968Y-12329055D01*
X10531968Y-12329055D02*
X10541491Y-12310008D01*
X10541491Y-12310008D02*
X10560539Y-12281436D01*
X10560539Y-12281436D02*
X10570063Y-12271912D01*
X10751015Y-12500484D02*
X10636730Y-12500484D01*
X10693872Y-12500484D02*
X10693872Y-12300484D01*
X10693872Y-12300484D02*
X10674825Y-12329055D01*
X10674825Y-12329055D02*
X10655777Y-12348103D01*
X10655777Y-12348103D02*
X10636730Y-12357627D01*
X10989111Y-12500484D02*
X10989111Y-12300484D01*
X11074825Y-12500484D02*
X11074825Y-12395722D01*
X11074825Y-12395722D02*
X11065301Y-12376674D01*
X11065301Y-12376674D02*
X11046253Y-12367150D01*
X11046253Y-12367150D02*
X11017682Y-12367150D01*
X11017682Y-12367150D02*
X10998634Y-12376674D01*
X10998634Y-12376674D02*
X10989111Y-12386198D01*
X11198634Y-12500484D02*
X11179587Y-12490960D01*
X11179587Y-12490960D02*
X11170063Y-12481436D01*
X11170063Y-12481436D02*
X11160539Y-12462388D01*
X11160539Y-12462388D02*
X11160539Y-12405246D01*
X11160539Y-12405246D02*
X11170063Y-12386198D01*
X11170063Y-12386198D02*
X11179587Y-12376674D01*
X11179587Y-12376674D02*
X11198634Y-12367150D01*
X11198634Y-12367150D02*
X11227206Y-12367150D01*
X11227206Y-12367150D02*
X11246253Y-12376674D01*
X11246253Y-12376674D02*
X11255777Y-12386198D01*
X11255777Y-12386198D02*
X11265301Y-12405246D01*
X11265301Y-12405246D02*
X11265301Y-12462388D01*
X11265301Y-12462388D02*
X11255777Y-12481436D01*
X11255777Y-12481436D02*
X11246253Y-12490960D01*
X11246253Y-12490960D02*
X11227206Y-12500484D01*
X11227206Y-12500484D02*
X11198634Y-12500484D01*
X11379587Y-12500484D02*
X11360539Y-12490960D01*
X11360539Y-12490960D02*
X11351015Y-12471912D01*
X11351015Y-12471912D02*
X11351015Y-12300484D01*
X11531968Y-12490960D02*
X11512920Y-12500484D01*
X11512920Y-12500484D02*
X11474825Y-12500484D01*
X11474825Y-12500484D02*
X11455777Y-12490960D01*
X11455777Y-12490960D02*
X11446253Y-12471912D01*
X11446253Y-12471912D02*
X11446253Y-12395722D01*
X11446253Y-12395722D02*
X11455777Y-12376674D01*
X11455777Y-12376674D02*
X11474825Y-12367150D01*
X11474825Y-12367150D02*
X11512920Y-12367150D01*
X11512920Y-12367150D02*
X11531968Y-12376674D01*
X11531968Y-12376674D02*
X11541491Y-12395722D01*
X11541491Y-12395722D02*
X11541491Y-12414769D01*
X11541491Y-12414769D02*
X11446253Y-12433817D01*
X11608158Y-12576674D02*
X11617682Y-12567150D01*
X11617682Y-12567150D02*
X11636730Y-12538579D01*
X11636730Y-12538579D02*
X11646253Y-12519531D01*
X11646253Y-12519531D02*
X11655777Y-12490960D01*
X11655777Y-12490960D02*
X11665301Y-12443341D01*
X11665301Y-12443341D02*
X11665301Y-12405246D01*
X11665301Y-12405246D02*
X11655777Y-12357627D01*
X11655777Y-12357627D02*
X11646253Y-12329055D01*
X11646253Y-12329055D02*
X11636730Y-12310008D01*
X11636730Y-12310008D02*
X11617682Y-12281436D01*
X11617682Y-12281436D02*
X11608158Y-12271912D01*
D10*
X6945000Y-12623000D02*
X6945000Y-12723000D01*
X6895000Y-12673000D02*
X6995000Y-12673000D01*
D11*
X7360539Y-12764484D02*
X7246253Y-12764484D01*
X7303396Y-12764484D02*
X7303396Y-12564484D01*
X7303396Y-12564484D02*
X7284348Y-12593055D01*
X7284348Y-12593055D02*
X7265301Y-12612103D01*
X7265301Y-12612103D02*
X7246253Y-12621627D01*
X7446253Y-12745436D02*
X7455777Y-12754960D01*
X7455777Y-12754960D02*
X7446253Y-12764484D01*
X7446253Y-12764484D02*
X7436729Y-12754960D01*
X7436729Y-12754960D02*
X7446253Y-12745436D01*
X7446253Y-12745436D02*
X7446253Y-12764484D01*
X7579586Y-12564484D02*
X7598634Y-12564484D01*
X7598634Y-12564484D02*
X7617682Y-12574008D01*
X7617682Y-12574008D02*
X7627205Y-12583531D01*
X7627205Y-12583531D02*
X7636729Y-12602579D01*
X7636729Y-12602579D02*
X7646253Y-12640674D01*
X7646253Y-12640674D02*
X7646253Y-12688293D01*
X7646253Y-12688293D02*
X7636729Y-12726388D01*
X7636729Y-12726388D02*
X7627205Y-12745436D01*
X7627205Y-12745436D02*
X7617682Y-12754960D01*
X7617682Y-12754960D02*
X7598634Y-12764484D01*
X7598634Y-12764484D02*
X7579586Y-12764484D01*
X7579586Y-12764484D02*
X7560539Y-12754960D01*
X7560539Y-12754960D02*
X7551015Y-12745436D01*
X7551015Y-12745436D02*
X7541491Y-12726388D01*
X7541491Y-12726388D02*
X7531967Y-12688293D01*
X7531967Y-12688293D02*
X7531967Y-12640674D01*
X7531967Y-12640674D02*
X7541491Y-12602579D01*
X7541491Y-12602579D02*
X7551015Y-12583531D01*
X7551015Y-12583531D02*
X7560539Y-12574008D01*
X7560539Y-12574008D02*
X7579586Y-12564484D01*
X7770062Y-12564484D02*
X7789110Y-12564484D01*
X7789110Y-12564484D02*
X7808158Y-12574008D01*
X7808158Y-12574008D02*
X7817682Y-12583531D01*
X7817682Y-12583531D02*
X7827205Y-12602579D01*
X7827205Y-12602579D02*
X7836729Y-12640674D01*
X7836729Y-12640674D02*
X7836729Y-12688293D01*
X7836729Y-12688293D02*
X7827205Y-12726388D01*
X7827205Y-12726388D02*
X7817682Y-12745436D01*
X7817682Y-12745436D02*
X7808158Y-12754960D01*
X7808158Y-12754960D02*
X7789110Y-12764484D01*
X7789110Y-12764484D02*
X7770062Y-12764484D01*
X7770062Y-12764484D02*
X7751015Y-12754960D01*
X7751015Y-12754960D02*
X7741491Y-12745436D01*
X7741491Y-12745436D02*
X7731967Y-12726388D01*
X7731967Y-12726388D02*
X7722443Y-12688293D01*
X7722443Y-12688293D02*
X7722443Y-12640674D01*
X7722443Y-12640674D02*
X7731967Y-12602579D01*
X7731967Y-12602579D02*
X7741491Y-12583531D01*
X7741491Y-12583531D02*
X7751015Y-12574008D01*
X7751015Y-12574008D02*
X7770062Y-12564484D01*
X7960539Y-12564484D02*
X7979586Y-12564484D01*
X7979586Y-12564484D02*
X7998634Y-12574008D01*
X7998634Y-12574008D02*
X8008158Y-12583531D01*
X8008158Y-12583531D02*
X8017682Y-12602579D01*
X8017682Y-12602579D02*
X8027205Y-12640674D01*
X8027205Y-12640674D02*
X8027205Y-12688293D01*
X8027205Y-12688293D02*
X8017682Y-12726388D01*
X8017682Y-12726388D02*
X8008158Y-12745436D01*
X8008158Y-12745436D02*
X7998634Y-12754960D01*
X7998634Y-12754960D02*
X7979586Y-12764484D01*
X7979586Y-12764484D02*
X7960539Y-12764484D01*
X7960539Y-12764484D02*
X7941491Y-12754960D01*
X7941491Y-12754960D02*
X7931967Y-12745436D01*
X7931967Y-12745436D02*
X7922443Y-12726388D01*
X7922443Y-12726388D02*
X7912920Y-12688293D01*
X7912920Y-12688293D02*
X7912920Y-12640674D01*
X7912920Y-12640674D02*
X7922443Y-12602579D01*
X7922443Y-12602579D02*
X7931967Y-12583531D01*
X7931967Y-12583531D02*
X7941491Y-12574008D01*
X7941491Y-12574008D02*
X7960539Y-12564484D01*
X8112920Y-12764484D02*
X8112920Y-12631150D01*
X8112920Y-12650198D02*
X8122443Y-12640674D01*
X8122443Y-12640674D02*
X8141491Y-12631150D01*
X8141491Y-12631150D02*
X8170063Y-12631150D01*
X8170063Y-12631150D02*
X8189110Y-12640674D01*
X8189110Y-12640674D02*
X8198634Y-12659722D01*
X8198634Y-12659722D02*
X8198634Y-12764484D01*
X8198634Y-12659722D02*
X8208158Y-12640674D01*
X8208158Y-12640674D02*
X8227205Y-12631150D01*
X8227205Y-12631150D02*
X8255777Y-12631150D01*
X8255777Y-12631150D02*
X8274824Y-12640674D01*
X8274824Y-12640674D02*
X8284348Y-12659722D01*
X8284348Y-12659722D02*
X8284348Y-12764484D01*
X8379586Y-12764484D02*
X8379586Y-12631150D01*
X8379586Y-12650198D02*
X8389110Y-12640674D01*
X8389110Y-12640674D02*
X8408158Y-12631150D01*
X8408158Y-12631150D02*
X8436729Y-12631150D01*
X8436729Y-12631150D02*
X8455777Y-12640674D01*
X8455777Y-12640674D02*
X8465301Y-12659722D01*
X8465301Y-12659722D02*
X8465301Y-12764484D01*
X8465301Y-12659722D02*
X8474825Y-12640674D01*
X8474825Y-12640674D02*
X8493872Y-12631150D01*
X8493872Y-12631150D02*
X8522444Y-12631150D01*
X8522444Y-12631150D02*
X8541491Y-12640674D01*
X8541491Y-12640674D02*
X8551015Y-12659722D01*
X8551015Y-12659722D02*
X8551015Y-12764484D01*
X8941491Y-12554960D02*
X8770063Y-12812103D01*
X9198634Y-12564484D02*
X9217682Y-12564484D01*
X9217682Y-12564484D02*
X9236729Y-12574008D01*
X9236729Y-12574008D02*
X9246253Y-12583531D01*
X9246253Y-12583531D02*
X9255777Y-12602579D01*
X9255777Y-12602579D02*
X9265301Y-12640674D01*
X9265301Y-12640674D02*
X9265301Y-12688293D01*
X9265301Y-12688293D02*
X9255777Y-12726388D01*
X9255777Y-12726388D02*
X9246253Y-12745436D01*
X9246253Y-12745436D02*
X9236729Y-12754960D01*
X9236729Y-12754960D02*
X9217682Y-12764484D01*
X9217682Y-12764484D02*
X9198634Y-12764484D01*
X9198634Y-12764484D02*
X9179587Y-12754960D01*
X9179587Y-12754960D02*
X9170063Y-12745436D01*
X9170063Y-12745436D02*
X9160539Y-12726388D01*
X9160539Y-12726388D02*
X9151015Y-12688293D01*
X9151015Y-12688293D02*
X9151015Y-12640674D01*
X9151015Y-12640674D02*
X9160539Y-12602579D01*
X9160539Y-12602579D02*
X9170063Y-12583531D01*
X9170063Y-12583531D02*
X9179587Y-12574008D01*
X9179587Y-12574008D02*
X9198634Y-12564484D01*
X9351015Y-12745436D02*
X9360539Y-12754960D01*
X9360539Y-12754960D02*
X9351015Y-12764484D01*
X9351015Y-12764484D02*
X9341491Y-12754960D01*
X9341491Y-12754960D02*
X9351015Y-12745436D01*
X9351015Y-12745436D02*
X9351015Y-12764484D01*
X9484348Y-12564484D02*
X9503396Y-12564484D01*
X9503396Y-12564484D02*
X9522444Y-12574008D01*
X9522444Y-12574008D02*
X9531968Y-12583531D01*
X9531968Y-12583531D02*
X9541491Y-12602579D01*
X9541491Y-12602579D02*
X9551015Y-12640674D01*
X9551015Y-12640674D02*
X9551015Y-12688293D01*
X9551015Y-12688293D02*
X9541491Y-12726388D01*
X9541491Y-12726388D02*
X9531968Y-12745436D01*
X9531968Y-12745436D02*
X9522444Y-12754960D01*
X9522444Y-12754960D02*
X9503396Y-12764484D01*
X9503396Y-12764484D02*
X9484348Y-12764484D01*
X9484348Y-12764484D02*
X9465301Y-12754960D01*
X9465301Y-12754960D02*
X9455777Y-12745436D01*
X9455777Y-12745436D02*
X9446253Y-12726388D01*
X9446253Y-12726388D02*
X9436729Y-12688293D01*
X9436729Y-12688293D02*
X9436729Y-12640674D01*
X9436729Y-12640674D02*
X9446253Y-12602579D01*
X9446253Y-12602579D02*
X9455777Y-12583531D01*
X9455777Y-12583531D02*
X9465301Y-12574008D01*
X9465301Y-12574008D02*
X9484348Y-12564484D01*
X9617682Y-12564484D02*
X9741491Y-12564484D01*
X9741491Y-12564484D02*
X9674825Y-12640674D01*
X9674825Y-12640674D02*
X9703396Y-12640674D01*
X9703396Y-12640674D02*
X9722444Y-12650198D01*
X9722444Y-12650198D02*
X9731968Y-12659722D01*
X9731968Y-12659722D02*
X9741491Y-12678769D01*
X9741491Y-12678769D02*
X9741491Y-12726388D01*
X9741491Y-12726388D02*
X9731968Y-12745436D01*
X9731968Y-12745436D02*
X9722444Y-12754960D01*
X9722444Y-12754960D02*
X9703396Y-12764484D01*
X9703396Y-12764484D02*
X9646253Y-12764484D01*
X9646253Y-12764484D02*
X9627206Y-12754960D01*
X9627206Y-12754960D02*
X9617682Y-12745436D01*
X9836729Y-12764484D02*
X9874825Y-12764484D01*
X9874825Y-12764484D02*
X9893872Y-12754960D01*
X9893872Y-12754960D02*
X9903396Y-12745436D01*
X9903396Y-12745436D02*
X9922444Y-12716865D01*
X9922444Y-12716865D02*
X9931968Y-12678769D01*
X9931968Y-12678769D02*
X9931968Y-12602579D01*
X9931968Y-12602579D02*
X9922444Y-12583531D01*
X9922444Y-12583531D02*
X9912920Y-12574008D01*
X9912920Y-12574008D02*
X9893872Y-12564484D01*
X9893872Y-12564484D02*
X9855777Y-12564484D01*
X9855777Y-12564484D02*
X9836729Y-12574008D01*
X9836729Y-12574008D02*
X9827206Y-12583531D01*
X9827206Y-12583531D02*
X9817682Y-12602579D01*
X9817682Y-12602579D02*
X9817682Y-12650198D01*
X9817682Y-12650198D02*
X9827206Y-12669246D01*
X9827206Y-12669246D02*
X9836729Y-12678769D01*
X9836729Y-12678769D02*
X9855777Y-12688293D01*
X9855777Y-12688293D02*
X9893872Y-12688293D01*
X9893872Y-12688293D02*
X9912920Y-12678769D01*
X9912920Y-12678769D02*
X9922444Y-12669246D01*
X9922444Y-12669246D02*
X9931968Y-12650198D01*
X10103396Y-12631150D02*
X10103396Y-12764484D01*
X10055777Y-12554960D02*
X10008158Y-12697817D01*
X10008158Y-12697817D02*
X10131968Y-12697817D01*
X10198634Y-12564484D02*
X10198634Y-12602579D01*
X10274825Y-12564484D02*
X10274825Y-12602579D01*
X10570063Y-12840674D02*
X10560539Y-12831150D01*
X10560539Y-12831150D02*
X10541491Y-12802579D01*
X10541491Y-12802579D02*
X10531968Y-12783531D01*
X10531968Y-12783531D02*
X10522444Y-12754960D01*
X10522444Y-12754960D02*
X10512920Y-12707341D01*
X10512920Y-12707341D02*
X10512920Y-12669246D01*
X10512920Y-12669246D02*
X10522444Y-12621627D01*
X10522444Y-12621627D02*
X10531968Y-12593055D01*
X10531968Y-12593055D02*
X10541491Y-12574008D01*
X10541491Y-12574008D02*
X10560539Y-12545436D01*
X10560539Y-12545436D02*
X10570063Y-12535912D01*
X10751015Y-12764484D02*
X10636730Y-12764484D01*
X10693872Y-12764484D02*
X10693872Y-12564484D01*
X10693872Y-12564484D02*
X10674825Y-12593055D01*
X10674825Y-12593055D02*
X10655777Y-12612103D01*
X10655777Y-12612103D02*
X10636730Y-12621627D01*
X10827206Y-12583531D02*
X10836730Y-12574008D01*
X10836730Y-12574008D02*
X10855777Y-12564484D01*
X10855777Y-12564484D02*
X10903396Y-12564484D01*
X10903396Y-12564484D02*
X10922444Y-12574008D01*
X10922444Y-12574008D02*
X10931968Y-12583531D01*
X10931968Y-12583531D02*
X10941491Y-12602579D01*
X10941491Y-12602579D02*
X10941491Y-12621627D01*
X10941491Y-12621627D02*
X10931968Y-12650198D01*
X10931968Y-12650198D02*
X10817682Y-12764484D01*
X10817682Y-12764484D02*
X10941491Y-12764484D01*
X11179587Y-12764484D02*
X11179587Y-12564484D01*
X11265301Y-12764484D02*
X11265301Y-12659722D01*
X11265301Y-12659722D02*
X11255777Y-12640674D01*
X11255777Y-12640674D02*
X11236730Y-12631150D01*
X11236730Y-12631150D02*
X11208158Y-12631150D01*
X11208158Y-12631150D02*
X11189110Y-12640674D01*
X11189110Y-12640674D02*
X11179587Y-12650198D01*
X11389110Y-12764484D02*
X11370063Y-12754960D01*
X11370063Y-12754960D02*
X11360539Y-12745436D01*
X11360539Y-12745436D02*
X11351015Y-12726388D01*
X11351015Y-12726388D02*
X11351015Y-12669246D01*
X11351015Y-12669246D02*
X11360539Y-12650198D01*
X11360539Y-12650198D02*
X11370063Y-12640674D01*
X11370063Y-12640674D02*
X11389110Y-12631150D01*
X11389110Y-12631150D02*
X11417682Y-12631150D01*
X11417682Y-12631150D02*
X11436730Y-12640674D01*
X11436730Y-12640674D02*
X11446253Y-12650198D01*
X11446253Y-12650198D02*
X11455777Y-12669246D01*
X11455777Y-12669246D02*
X11455777Y-12726388D01*
X11455777Y-12726388D02*
X11446253Y-12745436D01*
X11446253Y-12745436D02*
X11436730Y-12754960D01*
X11436730Y-12754960D02*
X11417682Y-12764484D01*
X11417682Y-12764484D02*
X11389110Y-12764484D01*
X11570063Y-12764484D02*
X11551015Y-12754960D01*
X11551015Y-12754960D02*
X11541491Y-12735912D01*
X11541491Y-12735912D02*
X11541491Y-12564484D01*
X11722444Y-12754960D02*
X11703396Y-12764484D01*
X11703396Y-12764484D02*
X11665301Y-12764484D01*
X11665301Y-12764484D02*
X11646253Y-12754960D01*
X11646253Y-12754960D02*
X11636730Y-12735912D01*
X11636730Y-12735912D02*
X11636730Y-12659722D01*
X11636730Y-12659722D02*
X11646253Y-12640674D01*
X11646253Y-12640674D02*
X11665301Y-12631150D01*
X11665301Y-12631150D02*
X11703396Y-12631150D01*
X11703396Y-12631150D02*
X11722444Y-12640674D01*
X11722444Y-12640674D02*
X11731968Y-12659722D01*
X11731968Y-12659722D02*
X11731968Y-12678769D01*
X11731968Y-12678769D02*
X11636730Y-12697817D01*
X11808158Y-12754960D02*
X11827206Y-12764484D01*
X11827206Y-12764484D02*
X11865301Y-12764484D01*
X11865301Y-12764484D02*
X11884349Y-12754960D01*
X11884349Y-12754960D02*
X11893872Y-12735912D01*
X11893872Y-12735912D02*
X11893872Y-12726388D01*
X11893872Y-12726388D02*
X11884349Y-12707341D01*
X11884349Y-12707341D02*
X11865301Y-12697817D01*
X11865301Y-12697817D02*
X11836730Y-12697817D01*
X11836730Y-12697817D02*
X11817682Y-12688293D01*
X11817682Y-12688293D02*
X11808158Y-12669246D01*
X11808158Y-12669246D02*
X11808158Y-12659722D01*
X11808158Y-12659722D02*
X11817682Y-12640674D01*
X11817682Y-12640674D02*
X11836730Y-12631150D01*
X11836730Y-12631150D02*
X11865301Y-12631150D01*
X11865301Y-12631150D02*
X11884349Y-12640674D01*
X11960539Y-12840674D02*
X11970063Y-12831150D01*
X11970063Y-12831150D02*
X11989111Y-12802579D01*
X11989111Y-12802579D02*
X11998634Y-12783531D01*
X11998634Y-12783531D02*
X12008158Y-12754960D01*
X12008158Y-12754960D02*
X12017682Y-12707341D01*
X12017682Y-12707341D02*
X12017682Y-12669246D01*
X12017682Y-12669246D02*
X12008158Y-12621627D01*
X12008158Y-12621627D02*
X11998634Y-12593055D01*
X11998634Y-12593055D02*
X11989111Y-12574008D01*
X11989111Y-12574008D02*
X11970063Y-12545436D01*
X11970063Y-12545436D02*
X11960539Y-12535912D01*
D14*
X6977427Y-12979427D02*
X6977427Y-12894573D01*
X6892573Y-12894573D01*
X6892573Y-12979427D01*
X6977427Y-12979427D01*
D11*
X7360539Y-13028484D02*
X7246253Y-13028484D01*
X7303396Y-13028484D02*
X7303396Y-12828484D01*
X7303396Y-12828484D02*
X7284348Y-12857055D01*
X7284348Y-12857055D02*
X7265301Y-12876103D01*
X7265301Y-12876103D02*
X7246253Y-12885627D01*
X7446253Y-13009436D02*
X7455777Y-13018960D01*
X7455777Y-13018960D02*
X7446253Y-13028484D01*
X7446253Y-13028484D02*
X7436729Y-13018960D01*
X7436729Y-13018960D02*
X7446253Y-13009436D01*
X7446253Y-13009436D02*
X7446253Y-13028484D01*
X7531967Y-12847531D02*
X7541491Y-12838008D01*
X7541491Y-12838008D02*
X7560539Y-12828484D01*
X7560539Y-12828484D02*
X7608158Y-12828484D01*
X7608158Y-12828484D02*
X7627205Y-12838008D01*
X7627205Y-12838008D02*
X7636729Y-12847531D01*
X7636729Y-12847531D02*
X7646253Y-12866579D01*
X7646253Y-12866579D02*
X7646253Y-12885627D01*
X7646253Y-12885627D02*
X7636729Y-12914198D01*
X7636729Y-12914198D02*
X7522443Y-13028484D01*
X7522443Y-13028484D02*
X7646253Y-13028484D01*
X7770062Y-12828484D02*
X7789110Y-12828484D01*
X7789110Y-12828484D02*
X7808158Y-12838008D01*
X7808158Y-12838008D02*
X7817682Y-12847531D01*
X7817682Y-12847531D02*
X7827205Y-12866579D01*
X7827205Y-12866579D02*
X7836729Y-12904674D01*
X7836729Y-12904674D02*
X7836729Y-12952293D01*
X7836729Y-12952293D02*
X7827205Y-12990388D01*
X7827205Y-12990388D02*
X7817682Y-13009436D01*
X7817682Y-13009436D02*
X7808158Y-13018960D01*
X7808158Y-13018960D02*
X7789110Y-13028484D01*
X7789110Y-13028484D02*
X7770062Y-13028484D01*
X7770062Y-13028484D02*
X7751015Y-13018960D01*
X7751015Y-13018960D02*
X7741491Y-13009436D01*
X7741491Y-13009436D02*
X7731967Y-12990388D01*
X7731967Y-12990388D02*
X7722443Y-12952293D01*
X7722443Y-12952293D02*
X7722443Y-12904674D01*
X7722443Y-12904674D02*
X7731967Y-12866579D01*
X7731967Y-12866579D02*
X7741491Y-12847531D01*
X7741491Y-12847531D02*
X7751015Y-12838008D01*
X7751015Y-12838008D02*
X7770062Y-12828484D01*
X7960539Y-12828484D02*
X7979586Y-12828484D01*
X7979586Y-12828484D02*
X7998634Y-12838008D01*
X7998634Y-12838008D02*
X8008158Y-12847531D01*
X8008158Y-12847531D02*
X8017682Y-12866579D01*
X8017682Y-12866579D02*
X8027205Y-12904674D01*
X8027205Y-12904674D02*
X8027205Y-12952293D01*
X8027205Y-12952293D02*
X8017682Y-12990388D01*
X8017682Y-12990388D02*
X8008158Y-13009436D01*
X8008158Y-13009436D02*
X7998634Y-13018960D01*
X7998634Y-13018960D02*
X7979586Y-13028484D01*
X7979586Y-13028484D02*
X7960539Y-13028484D01*
X7960539Y-13028484D02*
X7941491Y-13018960D01*
X7941491Y-13018960D02*
X7931967Y-13009436D01*
X7931967Y-13009436D02*
X7922443Y-12990388D01*
X7922443Y-12990388D02*
X7912920Y-12952293D01*
X7912920Y-12952293D02*
X7912920Y-12904674D01*
X7912920Y-12904674D02*
X7922443Y-12866579D01*
X7922443Y-12866579D02*
X7931967Y-12847531D01*
X7931967Y-12847531D02*
X7941491Y-12838008D01*
X7941491Y-12838008D02*
X7960539Y-12828484D01*
X8112920Y-13028484D02*
X8112920Y-12895150D01*
X8112920Y-12914198D02*
X8122443Y-12904674D01*
X8122443Y-12904674D02*
X8141491Y-12895150D01*
X8141491Y-12895150D02*
X8170063Y-12895150D01*
X8170063Y-12895150D02*
X8189110Y-12904674D01*
X8189110Y-12904674D02*
X8198634Y-12923722D01*
X8198634Y-12923722D02*
X8198634Y-13028484D01*
X8198634Y-12923722D02*
X8208158Y-12904674D01*
X8208158Y-12904674D02*
X8227205Y-12895150D01*
X8227205Y-12895150D02*
X8255777Y-12895150D01*
X8255777Y-12895150D02*
X8274824Y-12904674D01*
X8274824Y-12904674D02*
X8284348Y-12923722D01*
X8284348Y-12923722D02*
X8284348Y-13028484D01*
X8379586Y-13028484D02*
X8379586Y-12895150D01*
X8379586Y-12914198D02*
X8389110Y-12904674D01*
X8389110Y-12904674D02*
X8408158Y-12895150D01*
X8408158Y-12895150D02*
X8436729Y-12895150D01*
X8436729Y-12895150D02*
X8455777Y-12904674D01*
X8455777Y-12904674D02*
X8465301Y-12923722D01*
X8465301Y-12923722D02*
X8465301Y-13028484D01*
X8465301Y-12923722D02*
X8474825Y-12904674D01*
X8474825Y-12904674D02*
X8493872Y-12895150D01*
X8493872Y-12895150D02*
X8522444Y-12895150D01*
X8522444Y-12895150D02*
X8541491Y-12904674D01*
X8541491Y-12904674D02*
X8551015Y-12923722D01*
X8551015Y-12923722D02*
X8551015Y-13028484D01*
X8941491Y-12818960D02*
X8770063Y-13076103D01*
X9198634Y-12828484D02*
X9217682Y-12828484D01*
X9217682Y-12828484D02*
X9236729Y-12838008D01*
X9236729Y-12838008D02*
X9246253Y-12847531D01*
X9246253Y-12847531D02*
X9255777Y-12866579D01*
X9255777Y-12866579D02*
X9265301Y-12904674D01*
X9265301Y-12904674D02*
X9265301Y-12952293D01*
X9265301Y-12952293D02*
X9255777Y-12990388D01*
X9255777Y-12990388D02*
X9246253Y-13009436D01*
X9246253Y-13009436D02*
X9236729Y-13018960D01*
X9236729Y-13018960D02*
X9217682Y-13028484D01*
X9217682Y-13028484D02*
X9198634Y-13028484D01*
X9198634Y-13028484D02*
X9179587Y-13018960D01*
X9179587Y-13018960D02*
X9170063Y-13009436D01*
X9170063Y-13009436D02*
X9160539Y-12990388D01*
X9160539Y-12990388D02*
X9151015Y-12952293D01*
X9151015Y-12952293D02*
X9151015Y-12904674D01*
X9151015Y-12904674D02*
X9160539Y-12866579D01*
X9160539Y-12866579D02*
X9170063Y-12847531D01*
X9170063Y-12847531D02*
X9179587Y-12838008D01*
X9179587Y-12838008D02*
X9198634Y-12828484D01*
X9351015Y-13009436D02*
X9360539Y-13018960D01*
X9360539Y-13018960D02*
X9351015Y-13028484D01*
X9351015Y-13028484D02*
X9341491Y-13018960D01*
X9341491Y-13018960D02*
X9351015Y-13009436D01*
X9351015Y-13009436D02*
X9351015Y-13028484D01*
X9484348Y-12828484D02*
X9503396Y-12828484D01*
X9503396Y-12828484D02*
X9522444Y-12838008D01*
X9522444Y-12838008D02*
X9531968Y-12847531D01*
X9531968Y-12847531D02*
X9541491Y-12866579D01*
X9541491Y-12866579D02*
X9551015Y-12904674D01*
X9551015Y-12904674D02*
X9551015Y-12952293D01*
X9551015Y-12952293D02*
X9541491Y-12990388D01*
X9541491Y-12990388D02*
X9531968Y-13009436D01*
X9531968Y-13009436D02*
X9522444Y-13018960D01*
X9522444Y-13018960D02*
X9503396Y-13028484D01*
X9503396Y-13028484D02*
X9484348Y-13028484D01*
X9484348Y-13028484D02*
X9465301Y-13018960D01*
X9465301Y-13018960D02*
X9455777Y-13009436D01*
X9455777Y-13009436D02*
X9446253Y-12990388D01*
X9446253Y-12990388D02*
X9436729Y-12952293D01*
X9436729Y-12952293D02*
X9436729Y-12904674D01*
X9436729Y-12904674D02*
X9446253Y-12866579D01*
X9446253Y-12866579D02*
X9455777Y-12847531D01*
X9455777Y-12847531D02*
X9465301Y-12838008D01*
X9465301Y-12838008D02*
X9484348Y-12828484D01*
X9722444Y-12895150D02*
X9722444Y-13028484D01*
X9674825Y-12818960D02*
X9627206Y-12961817D01*
X9627206Y-12961817D02*
X9751015Y-12961817D01*
X9808158Y-12828484D02*
X9941491Y-12828484D01*
X9941491Y-12828484D02*
X9855777Y-13028484D01*
X10008158Y-12847531D02*
X10017682Y-12838008D01*
X10017682Y-12838008D02*
X10036729Y-12828484D01*
X10036729Y-12828484D02*
X10084349Y-12828484D01*
X10084349Y-12828484D02*
X10103396Y-12838008D01*
X10103396Y-12838008D02*
X10112920Y-12847531D01*
X10112920Y-12847531D02*
X10122444Y-12866579D01*
X10122444Y-12866579D02*
X10122444Y-12885627D01*
X10122444Y-12885627D02*
X10112920Y-12914198D01*
X10112920Y-12914198D02*
X9998634Y-13028484D01*
X9998634Y-13028484D02*
X10122444Y-13028484D01*
X10198634Y-12828484D02*
X10198634Y-12866579D01*
X10274825Y-12828484D02*
X10274825Y-12866579D01*
X10570063Y-13104674D02*
X10560539Y-13095150D01*
X10560539Y-13095150D02*
X10541491Y-13066579D01*
X10541491Y-13066579D02*
X10531968Y-13047531D01*
X10531968Y-13047531D02*
X10522444Y-13018960D01*
X10522444Y-13018960D02*
X10512920Y-12971341D01*
X10512920Y-12971341D02*
X10512920Y-12933246D01*
X10512920Y-12933246D02*
X10522444Y-12885627D01*
X10522444Y-12885627D02*
X10531968Y-12857055D01*
X10531968Y-12857055D02*
X10541491Y-12838008D01*
X10541491Y-12838008D02*
X10560539Y-12809436D01*
X10560539Y-12809436D02*
X10570063Y-12799912D01*
X10731968Y-12828484D02*
X10693872Y-12828484D01*
X10693872Y-12828484D02*
X10674825Y-12838008D01*
X10674825Y-12838008D02*
X10665301Y-12847531D01*
X10665301Y-12847531D02*
X10646253Y-12876103D01*
X10646253Y-12876103D02*
X10636730Y-12914198D01*
X10636730Y-12914198D02*
X10636730Y-12990388D01*
X10636730Y-12990388D02*
X10646253Y-13009436D01*
X10646253Y-13009436D02*
X10655777Y-13018960D01*
X10655777Y-13018960D02*
X10674825Y-13028484D01*
X10674825Y-13028484D02*
X10712920Y-13028484D01*
X10712920Y-13028484D02*
X10731968Y-13018960D01*
X10731968Y-13018960D02*
X10741491Y-13009436D01*
X10741491Y-13009436D02*
X10751015Y-12990388D01*
X10751015Y-12990388D02*
X10751015Y-12942769D01*
X10751015Y-12942769D02*
X10741491Y-12923722D01*
X10741491Y-12923722D02*
X10731968Y-12914198D01*
X10731968Y-12914198D02*
X10712920Y-12904674D01*
X10712920Y-12904674D02*
X10674825Y-12904674D01*
X10674825Y-12904674D02*
X10655777Y-12914198D01*
X10655777Y-12914198D02*
X10646253Y-12923722D01*
X10646253Y-12923722D02*
X10636730Y-12942769D01*
X10989111Y-13028484D02*
X10989111Y-12828484D01*
X11074825Y-13028484D02*
X11074825Y-12923722D01*
X11074825Y-12923722D02*
X11065301Y-12904674D01*
X11065301Y-12904674D02*
X11046253Y-12895150D01*
X11046253Y-12895150D02*
X11017682Y-12895150D01*
X11017682Y-12895150D02*
X10998634Y-12904674D01*
X10998634Y-12904674D02*
X10989111Y-12914198D01*
X11198634Y-13028484D02*
X11179587Y-13018960D01*
X11179587Y-13018960D02*
X11170063Y-13009436D01*
X11170063Y-13009436D02*
X11160539Y-12990388D01*
X11160539Y-12990388D02*
X11160539Y-12933246D01*
X11160539Y-12933246D02*
X11170063Y-12914198D01*
X11170063Y-12914198D02*
X11179587Y-12904674D01*
X11179587Y-12904674D02*
X11198634Y-12895150D01*
X11198634Y-12895150D02*
X11227206Y-12895150D01*
X11227206Y-12895150D02*
X11246253Y-12904674D01*
X11246253Y-12904674D02*
X11255777Y-12914198D01*
X11255777Y-12914198D02*
X11265301Y-12933246D01*
X11265301Y-12933246D02*
X11265301Y-12990388D01*
X11265301Y-12990388D02*
X11255777Y-13009436D01*
X11255777Y-13009436D02*
X11246253Y-13018960D01*
X11246253Y-13018960D02*
X11227206Y-13028484D01*
X11227206Y-13028484D02*
X11198634Y-13028484D01*
X11379587Y-13028484D02*
X11360539Y-13018960D01*
X11360539Y-13018960D02*
X11351015Y-12999912D01*
X11351015Y-12999912D02*
X11351015Y-12828484D01*
X11531968Y-13018960D02*
X11512920Y-13028484D01*
X11512920Y-13028484D02*
X11474825Y-13028484D01*
X11474825Y-13028484D02*
X11455777Y-13018960D01*
X11455777Y-13018960D02*
X11446253Y-12999912D01*
X11446253Y-12999912D02*
X11446253Y-12923722D01*
X11446253Y-12923722D02*
X11455777Y-12904674D01*
X11455777Y-12904674D02*
X11474825Y-12895150D01*
X11474825Y-12895150D02*
X11512920Y-12895150D01*
X11512920Y-12895150D02*
X11531968Y-12904674D01*
X11531968Y-12904674D02*
X11541491Y-12923722D01*
X11541491Y-12923722D02*
X11541491Y-12942769D01*
X11541491Y-12942769D02*
X11446253Y-12961817D01*
X11617682Y-13018960D02*
X11636730Y-13028484D01*
X11636730Y-13028484D02*
X11674825Y-13028484D01*
X11674825Y-13028484D02*
X11693872Y-13018960D01*
X11693872Y-13018960D02*
X11703396Y-12999912D01*
X11703396Y-12999912D02*
X11703396Y-12990388D01*
X11703396Y-12990388D02*
X11693872Y-12971341D01*
X11693872Y-12971341D02*
X11674825Y-12961817D01*
X11674825Y-12961817D02*
X11646253Y-12961817D01*
X11646253Y-12961817D02*
X11627206Y-12952293D01*
X11627206Y-12952293D02*
X11617682Y-12933246D01*
X11617682Y-12933246D02*
X11617682Y-12923722D01*
X11617682Y-12923722D02*
X11627206Y-12904674D01*
X11627206Y-12904674D02*
X11646253Y-12895150D01*
X11646253Y-12895150D02*
X11674825Y-12895150D01*
X11674825Y-12895150D02*
X11693872Y-12904674D01*
X11770063Y-13104674D02*
X11779587Y-13095150D01*
X11779587Y-13095150D02*
X11798634Y-13066579D01*
X11798634Y-13066579D02*
X11808158Y-13047531D01*
X11808158Y-13047531D02*
X11817682Y-13018960D01*
X11817682Y-13018960D02*
X11827206Y-12971341D01*
X11827206Y-12971341D02*
X11827206Y-12933246D01*
X11827206Y-12933246D02*
X11817682Y-12885627D01*
X11817682Y-12885627D02*
X11808158Y-12857055D01*
X11808158Y-12857055D02*
X11798634Y-12838008D01*
X11798634Y-12838008D02*
X11779587Y-12809436D01*
X11779587Y-12809436D02*
X11770063Y-12799912D01*
M02*
